ISO-10303-21;
HEADER;
/* Generated by software containing ST-Developer
 * from STEP Tools, Inc. (www.steptools.com) 
 */
/* OPTION: using custom renumber hook */

FILE_DESCRIPTION(
/* description */ ('STEP AP242 Edition 2',
'CAx-IF Rec.Pracs.---Representation and Presentation of Product Manufa
cturing Information (PMI)---4.0---2014-10-13',
'CAx-IF Rec.Pracs.---3D Tessellated Geometry---0.4---2014-09-14','2;1',
'CAx-IF Rec.Pracs.---User Defined Attributes---1.5---2016-08-15'),
/* implementation_level */ '2;1');

FILE_NAME(
/* name */ '6a79a6b3b8113231563ef7f4',
/* time_stamp */ '2026-08-10T10:23:49Z',
/* author */ (''),
/* organization */ (''),
/* preprocessor_version */ 'ST-DEVELOPER v20',
/* originating_system */ 'ONSHAPE BY PTC INC, 1.219',
/* authorisation */ '  ');

FILE_SCHEMA (('AP242_MANAGED_MODEL_BASED_3D_ENGINEERING_MIM_LF { 1 0 10303 442 3 1 4 }'));
ENDSEC;

DATA;
#10=CONTEXT_DEPENDENT_SHAPE_REPRESENTATION(#14,#776);
#11=CONTEXT_DEPENDENT_SHAPE_REPRESENTATION(#15,#778);
#12=NEXT_ASSEMBLY_USAGE_OCCURRENCE('NAUO1','Part 4','Part 4',#779,#780,
'');
#13=NEXT_ASSEMBLY_USAGE_OCCURRENCE('NAUO2','Part 3','Part 3',#779,#781,
'');
#14=(
REPRESENTATION_RELATIONSHIP(' ',' ',#486,#485)
REPRESENTATION_RELATIONSHIP_WITH_TRANSFORMATION(#16)
SHAPE_REPRESENTATION_RELATIONSHIP()
);
#15=(
REPRESENTATION_RELATIONSHIP(' ',' ',#487,#485)
REPRESENTATION_RELATIONSHIP_WITH_TRANSFORMATION(#17)
SHAPE_REPRESENTATION_RELATIONSHIP()
);
#16=ITEM_DEFINED_TRANSFORMATION(' ',' ',#488,#505);
#17=ITEM_DEFINED_TRANSFORMATION(' ',' ',#488,#519);
#18=SHAPE_REPRESENTATION_RELATIONSHIP('','',#486,#20);
#19=SHAPE_REPRESENTATION_RELATIONSHIP('','',#487,#21);
#20=ADVANCED_BREP_SHAPE_REPRESENTATION('',(#480),#766);
#21=ADVANCED_BREP_SHAPE_REPRESENTATION('',(#481),#767);
#22=CYLINDRICAL_SURFACE('',#500,0.0015);
#23=CYLINDRICAL_SURFACE('',#502,0.0015);
#24=CIRCLE('',#498,0.0015);
#25=CIRCLE('',#499,0.0015);
#26=CIRCLE('',#501,0.0015);
#27=CIRCLE('',#503,0.0015);
#28=ORIENTED_EDGE('',*,*,#144,.T.);
#29=ORIENTED_EDGE('',*,*,#145,.T.);
#30=ORIENTED_EDGE('',*,*,#146,.F.);
#31=ORIENTED_EDGE('',*,*,#147,.F.);
#32=ORIENTED_EDGE('',*,*,#148,.T.);
#33=ORIENTED_EDGE('',*,*,#149,.T.);
#34=ORIENTED_EDGE('',*,*,#150,.F.);
#35=ORIENTED_EDGE('',*,*,#151,.F.);
#36=ORIENTED_EDGE('',*,*,#152,.F.);
#37=ORIENTED_EDGE('',*,*,#147,.T.);
#38=ORIENTED_EDGE('',*,*,#153,.T.);
#39=ORIENTED_EDGE('',*,*,#154,.F.);
#40=ORIENTED_EDGE('',*,*,#148,.F.);
#41=ORIENTED_EDGE('',*,*,#155,.T.);
#42=ORIENTED_EDGE('',*,*,#156,.T.);
#43=ORIENTED_EDGE('',*,*,#157,.F.);
#44=ORIENTED_EDGE('',*,*,#158,.T.);
#45=ORIENTED_EDGE('',*,*,#159,.F.);
#46=ORIENTED_EDGE('',*,*,#153,.F.);
#47=ORIENTED_EDGE('',*,*,#146,.T.);
#48=ORIENTED_EDGE('',*,*,#160,.F.);
#49=ORIENTED_EDGE('',*,*,#156,.F.);
#50=ORIENTED_EDGE('',*,*,#161,.T.);
#51=ORIENTED_EDGE('',*,*,#162,.T.);
#52=ORIENTED_EDGE('',*,*,#163,.T.);
#53=ORIENTED_EDGE('',*,*,#164,.F.);
#54=ORIENTED_EDGE('',*,*,#144,.F.);
#55=ORIENTED_EDGE('',*,*,#152,.T.);
#56=ORIENTED_EDGE('',*,*,#145,.F.);
#57=ORIENTED_EDGE('',*,*,#164,.T.);
#58=ORIENTED_EDGE('',*,*,#165,.T.);
#59=ORIENTED_EDGE('',*,*,#162,.F.);
#60=ORIENTED_EDGE('',*,*,#166,.F.);
#61=ORIENTED_EDGE('',*,*,#150,.T.);
#62=ORIENTED_EDGE('',*,*,#167,.T.);
#63=ORIENTED_EDGE('',*,*,#158,.F.);
#64=ORIENTED_EDGE('',*,*,#166,.T.);
#65=ORIENTED_EDGE('',*,*,#161,.F.);
#66=ORIENTED_EDGE('',*,*,#155,.F.);
#67=ORIENTED_EDGE('',*,*,#151,.T.);
#68=ORIENTED_EDGE('',*,*,#168,.T.);
#69=ORIENTED_EDGE('',*,*,#169,.T.);
#70=ORIENTED_EDGE('',*,*,#163,.F.);
#71=ORIENTED_EDGE('',*,*,#157,.T.);
#72=ORIENTED_EDGE('',*,*,#160,.T.);
#73=ORIENTED_EDGE('',*,*,#165,.F.);
#74=ORIENTED_EDGE('',*,*,#170,.T.);
#75=ORIENTED_EDGE('',*,*,#169,.F.);
#76=ORIENTED_EDGE('',*,*,#171,.T.);
#77=ORIENTED_EDGE('',*,*,#168,.F.);
#78=ORIENTED_EDGE('',*,*,#149,.F.);
#79=ORIENTED_EDGE('',*,*,#154,.T.);
#80=ORIENTED_EDGE('',*,*,#159,.T.);
#81=ORIENTED_EDGE('',*,*,#167,.F.);
#82=ORIENTED_EDGE('',*,*,#170,.F.);
#83=ORIENTED_EDGE('',*,*,#171,.F.);
#84=ORIENTED_EDGE('',*,*,#172,.F.);
#85=ORIENTED_EDGE('',*,*,#173,.T.);
#86=ORIENTED_EDGE('',*,*,#174,.T.);
#87=ORIENTED_EDGE('',*,*,#175,.F.);
#88=ORIENTED_EDGE('',*,*,#176,.F.);
#89=ORIENTED_EDGE('',*,*,#177,.T.);
#90=ORIENTED_EDGE('',*,*,#172,.T.);
#91=ORIENTED_EDGE('',*,*,#178,.F.);
#92=ORIENTED_EDGE('',*,*,#179,.F.);
#93=ORIENTED_EDGE('',*,*,#180,.T.);
#94=ORIENTED_EDGE('',*,*,#176,.T.);
#95=ORIENTED_EDGE('',*,*,#181,.F.);
#96=ORIENTED_EDGE('',*,*,#174,.F.);
#97=ORIENTED_EDGE('',*,*,#182,.T.);
#98=ORIENTED_EDGE('',*,*,#179,.T.);
#99=ORIENTED_EDGE('',*,*,#183,.F.);
#100=ORIENTED_EDGE('',*,*,#178,.T.);
#101=ORIENTED_EDGE('',*,*,#175,.T.);
#102=ORIENTED_EDGE('',*,*,#183,.T.);
#103=ORIENTED_EDGE('',*,*,#181,.T.);
#104=ORIENTED_EDGE('',*,*,#184,.T.);
#105=ORIENTED_EDGE('',*,*,#185,.F.);
#106=ORIENTED_EDGE('',*,*,#186,.F.);
#107=ORIENTED_EDGE('',*,*,#187,.T.);
#108=ORIENTED_EDGE('',*,*,#188,.T.);
#109=ORIENTED_EDGE('',*,*,#187,.F.);
#110=ORIENTED_EDGE('',*,*,#189,.F.);
#111=ORIENTED_EDGE('',*,*,#190,.T.);
#112=ORIENTED_EDGE('',*,*,#191,.T.);
#113=ORIENTED_EDGE('',*,*,#190,.F.);
#114=ORIENTED_EDGE('',*,*,#192,.F.);
#115=ORIENTED_EDGE('',*,*,#193,.T.);
#116=ORIENTED_EDGE('',*,*,#194,.T.);
#117=ORIENTED_EDGE('',*,*,#193,.F.);
#118=ORIENTED_EDGE('',*,*,#195,.F.);
#119=ORIENTED_EDGE('',*,*,#196,.T.);
#120=ORIENTED_EDGE('',*,*,#197,.T.);
#121=ORIENTED_EDGE('',*,*,#196,.F.);
#122=ORIENTED_EDGE('',*,*,#198,.F.);
#123=ORIENTED_EDGE('',*,*,#199,.T.);
#124=ORIENTED_EDGE('',*,*,#200,.T.);
#125=ORIENTED_EDGE('',*,*,#199,.F.);
#126=ORIENTED_EDGE('',*,*,#201,.F.);
#127=ORIENTED_EDGE('',*,*,#185,.T.);
#128=ORIENTED_EDGE('',*,*,#186,.T.);
#129=ORIENTED_EDGE('',*,*,#201,.T.);
#130=ORIENTED_EDGE('',*,*,#198,.T.);
#131=ORIENTED_EDGE('',*,*,#195,.T.);
#132=ORIENTED_EDGE('',*,*,#192,.T.);
#133=ORIENTED_EDGE('',*,*,#189,.T.);
#134=ORIENTED_EDGE('',*,*,#184,.F.);
#135=ORIENTED_EDGE('',*,*,#188,.F.);
#136=ORIENTED_EDGE('',*,*,#191,.F.);
#137=ORIENTED_EDGE('',*,*,#194,.F.);
#138=ORIENTED_EDGE('',*,*,#197,.F.);
#139=ORIENTED_EDGE('',*,*,#200,.F.);
#140=ORIENTED_EDGE('',*,*,#173,.F.);
#141=ORIENTED_EDGE('',*,*,#177,.F.);
#142=ORIENTED_EDGE('',*,*,#180,.F.);
#143=ORIENTED_EDGE('',*,*,#182,.F.);
#144=EDGE_CURVE('',#202,#203,#242,.T.);
#145=EDGE_CURVE('',#203,#204,#243,.T.);
#146=EDGE_CURVE('',#205,#204,#244,.T.);
#147=EDGE_CURVE('',#202,#205,#245,.T.);
#148=EDGE_CURVE('',#206,#207,#246,.T.);
#149=EDGE_CURVE('',#207,#208,#247,.T.);
#150=EDGE_CURVE('',#209,#208,#248,.T.);
#151=EDGE_CURVE('',#206,#209,#249,.T.);
#152=EDGE_CURVE('',#202,#210,#250,.T.);
#153=EDGE_CURVE('',#205,#211,#251,.T.);
#154=EDGE_CURVE('',#207,#211,#252,.T.);
#155=EDGE_CURVE('',#206,#212,#253,.T.);
#156=EDGE_CURVE('',#212,#213,#254,.T.);
#157=EDGE_CURVE('',#210,#213,#255,.T.);
#158=EDGE_CURVE('',#204,#214,#256,.T.);
#159=EDGE_CURVE('',#211,#214,#257,.T.);
#160=EDGE_CURVE('',#213,#215,#258,.T.);
#161=EDGE_CURVE('',#212,#216,#259,.T.);
#162=EDGE_CURVE('',#216,#215,#260,.T.);
#163=EDGE_CURVE('',#210,#217,#261,.T.);
#164=EDGE_CURVE('',#203,#217,#262,.T.);
#165=EDGE_CURVE('',#217,#215,#263,.T.);
#166=EDGE_CURVE('',#209,#216,#264,.T.);
#167=EDGE_CURVE('',#208,#214,#265,.T.);
#168=EDGE_CURVE('',#218,#218,#24,.T.);
#169=EDGE_CURVE('',#219,#219,#25,.T.);
#170=EDGE_CURVE('',#220,#220,#26,.T.);
#171=EDGE_CURVE('',#221,#221,#27,.T.);
#172=EDGE_CURVE('',#222,#223,#266,.F.);
#173=EDGE_CURVE('',#222,#224,#267,.F.);
#174=EDGE_CURVE('',#224,#225,#268,.F.);
#175=EDGE_CURVE('',#223,#225,#269,.T.);
#176=EDGE_CURVE('',#226,#227,#270,.F.);
#177=EDGE_CURVE('',#226,#222,#271,.F.);
#178=EDGE_CURVE('',#227,#223,#272,.T.);
#179=EDGE_CURVE('',#228,#229,#273,.F.);
#180=EDGE_CURVE('',#228,#226,#274,.F.);
#181=EDGE_CURVE('',#229,#227,#275,.F.);
#182=EDGE_CURVE('',#224,#228,#276,.F.);
#183=EDGE_CURVE('',#225,#229,#277,.F.);
#184=EDGE_CURVE('',#230,#231,#278,.T.);
#185=EDGE_CURVE('',#232,#231,#279,.T.);
#186=EDGE_CURVE('',#233,#232,#280,.T.);
#187=EDGE_CURVE('',#233,#230,#281,.F.);
#188=EDGE_CURVE('',#234,#230,#282,.T.);
#189=EDGE_CURVE('',#235,#233,#283,.T.);
#190=EDGE_CURVE('',#235,#234,#284,.F.);
#191=EDGE_CURVE('',#236,#234,#285,.T.);
#192=EDGE_CURVE('',#237,#235,#286,.T.);
#193=EDGE_CURVE('',#237,#236,#287,.T.);
#194=EDGE_CURVE('',#238,#236,#288,.F.);
#195=EDGE_CURVE('',#239,#237,#289,.F.);
#196=EDGE_CURVE('',#239,#238,#290,.T.);
#197=EDGE_CURVE('',#240,#238,#291,.T.);
#198=EDGE_CURVE('',#241,#239,#292,.T.);
#199=EDGE_CURVE('',#241,#240,#293,.T.);
#200=EDGE_CURVE('',#231,#240,#294,.F.);
#201=EDGE_CURVE('',#232,#241,#295,.F.);
#202=VERTEX_POINT('',#641);
#203=VERTEX_POINT('',#642);
#204=VERTEX_POINT('',#644);
#205=VERTEX_POINT('',#646);
#206=VERTEX_POINT('',#650);
#207=VERTEX_POINT('',#651);
#208=VERTEX_POINT('',#653);
#209=VERTEX_POINT('',#655);
#210=VERTEX_POINT('',#659);
#211=VERTEX_POINT('',#661);
#212=VERTEX_POINT('',#664);
#213=VERTEX_POINT('',#666);
#214=VERTEX_POINT('',#670);
#215=VERTEX_POINT('',#674);
#216=VERTEX_POINT('',#676);
#217=VERTEX_POINT('',#680);
#218=VERTEX_POINT('',#689);
#219=VERTEX_POINT('',#691);
#220=VERTEX_POINT('',#694);
#221=VERTEX_POINT('',#697);
#222=VERTEX_POINT('',#702);
#223=VERTEX_POINT('',#703);
#224=VERTEX_POINT('',#705);
#225=VERTEX_POINT('',#707);
#226=VERTEX_POINT('',#711);
#227=VERTEX_POINT('',#712);
#228=VERTEX_POINT('',#717);
#229=VERTEX_POINT('',#718);
#230=VERTEX_POINT('',#726);
#231=VERTEX_POINT('',#727);
#232=VERTEX_POINT('',#729);
#233=VERTEX_POINT('',#731);
#234=VERTEX_POINT('',#735);
#235=VERTEX_POINT('',#737);
#236=VERTEX_POINT('',#741);
#237=VERTEX_POINT('',#743);
#238=VERTEX_POINT('',#747);
#239=VERTEX_POINT('',#749);
#240=VERTEX_POINT('',#753);
#241=VERTEX_POINT('',#755);
#242=LINE('',#640,#296);
#243=LINE('',#643,#297);
#244=LINE('',#645,#298);
#245=LINE('',#647,#299);
#246=LINE('',#649,#300);
#247=LINE('',#652,#301);
#248=LINE('',#654,#302);
#249=LINE('',#656,#303);
#250=LINE('',#658,#304);
#251=LINE('',#660,#305);
#252=LINE('',#662,#306);
#253=LINE('',#663,#307);
#254=LINE('',#665,#308);
#255=LINE('',#667,#309);
#256=LINE('',#669,#310);
#257=LINE('',#671,#311);
#258=LINE('',#673,#312);
#259=LINE('',#675,#313);
#260=LINE('',#677,#314);
#261=LINE('',#679,#315);
#262=LINE('',#681,#316);
#263=LINE('',#683,#317);
#264=LINE('',#684,#318);
#265=LINE('',#685,#319);
#266=LINE('',#701,#320);
#267=LINE('',#704,#321);
#268=LINE('',#706,#322);
#269=LINE('',#708,#323);
#270=LINE('',#710,#324);
#271=LINE('',#713,#325);
#272=LINE('',#714,#326);
#273=LINE('',#716,#327);
#274=LINE('',#719,#328);
#275=LINE('',#720,#329);
#276=LINE('',#722,#330);
#277=LINE('',#723,#331);
#278=LINE('',#725,#332);
#279=LINE('',#728,#333);
#280=LINE('',#730,#334);
#281=LINE('',#732,#335);
#282=LINE('',#734,#336);
#283=LINE('',#736,#337);
#284=LINE('',#738,#338);
#285=LINE('',#740,#339);
#286=LINE('',#742,#340);
#287=LINE('',#744,#341);
#288=LINE('',#746,#342);
#289=LINE('',#748,#343);
#290=LINE('',#750,#344);
#291=LINE('',#752,#345);
#292=LINE('',#754,#346);
#293=LINE('',#756,#347);
#294=LINE('',#758,#348);
#295=LINE('',#759,#349);
#296=VECTOR('',#524,1.);
#297=VECTOR('',#525,1.);
#298=VECTOR('',#526,1.);
#299=VECTOR('',#527,1.);
#300=VECTOR('',#530,1.);
#301=VECTOR('',#531,1.);
#302=VECTOR('',#532,1.);
#303=VECTOR('',#533,1.);
#304=VECTOR('',#536,1.);
#305=VECTOR('',#537,1.);
#306=VECTOR('',#538,1.);
#307=VECTOR('',#539,1.);
#308=VECTOR('',#540,1.);
#309=VECTOR('',#541,1.);
#310=VECTOR('',#544,1.);
#311=VECTOR('',#545,1.);
#312=VECTOR('',#548,1.);
#313=VECTOR('',#549,1.);
#314=VECTOR('',#550,1.);
#315=VECTOR('',#553,1.);
#316=VECTOR('',#554,1.);
#317=VECTOR('',#557,1.);
#318=VECTOR('',#558,1.);
#319=VECTOR('',#559,1.);
#320=VECTOR('',#582,1.);
#321=VECTOR('',#583,1.);
#322=VECTOR('',#584,1.);
#323=VECTOR('',#585,1.);
#324=VECTOR('',#588,1.);
#325=VECTOR('',#589,1.);
#326=VECTOR('',#590,1.);
#327=VECTOR('',#593,1.);
#328=VECTOR('',#594,1.);
#329=VECTOR('',#595,1.);
#330=VECTOR('',#598,1.);
#331=VECTOR('',#599,1.);
#332=VECTOR('',#602,1.);
#333=VECTOR('',#603,1.);
#334=VECTOR('',#604,1.);
#335=VECTOR('',#605,1.);
#336=VECTOR('',#608,1.);
#337=VECTOR('',#609,1.);
#338=VECTOR('',#610,1.);
#339=VECTOR('',#613,1.);
#340=VECTOR('',#614,1.);
#341=VECTOR('',#615,1.);
#342=VECTOR('',#618,1.);
#343=VECTOR('',#619,1.);
#344=VECTOR('',#620,1.);
#345=VECTOR('',#623,1.);
#346=VECTOR('',#624,1.);
#347=VECTOR('',#625,1.);
#348=VECTOR('',#628,1.);
#349=VECTOR('',#629,1.);
#350=EDGE_LOOP('',(#28,#29,#30,#31));
#351=EDGE_LOOP('',(#32,#33,#34,#35));
#352=EDGE_LOOP('',(#36,#37,#38,#39,#40,#41,#42,#43));
#353=EDGE_LOOP('',(#44,#45,#46,#47));
#354=EDGE_LOOP('',(#48,#49,#50,#51));
#355=EDGE_LOOP('',(#52,#53,#54,#55));
#356=EDGE_LOOP('',(#56,#57,#58,#59,#60,#61,#62,#63));
#357=EDGE_LOOP('',(#64,#65,#66,#67));
#358=EDGE_LOOP('',(#68));
#359=EDGE_LOOP('',(#69));
#360=EDGE_LOOP('',(#70,#71,#72,#73));
#361=EDGE_LOOP('',(#74));
#362=EDGE_LOOP('',(#75));
#363=EDGE_LOOP('',(#76));
#364=EDGE_LOOP('',(#77));
#365=EDGE_LOOP('',(#78,#79,#80,#81));
#366=EDGE_LOOP('',(#82));
#367=EDGE_LOOP('',(#83));
#368=EDGE_LOOP('',(#84,#85,#86,#87));
#369=EDGE_LOOP('',(#88,#89,#90,#91));
#370=EDGE_LOOP('',(#92,#93,#94,#95));
#371=EDGE_LOOP('',(#96,#97,#98,#99));
#372=EDGE_LOOP('',(#100,#101,#102,#103));
#373=EDGE_LOOP('',(#104,#105,#106,#107));
#374=EDGE_LOOP('',(#108,#109,#110,#111));
#375=EDGE_LOOP('',(#112,#113,#114,#115));
#376=EDGE_LOOP('',(#116,#117,#118,#119));
#377=EDGE_LOOP('',(#120,#121,#122,#123));
#378=EDGE_LOOP('',(#124,#125,#126,#127));
#379=EDGE_LOOP('',(#128,#129,#130,#131,#132,#133));
#380=EDGE_LOOP('',(#134,#135,#136,#137,#138,#139));
#381=EDGE_LOOP('',(#140,#141,#142,#143));
#382=FACE_BOUND('',#350,.T.);
#383=FACE_BOUND('',#351,.T.);
#384=FACE_BOUND('',#352,.T.);
#385=FACE_BOUND('',#353,.T.);
#386=FACE_BOUND('',#354,.T.);
#387=FACE_BOUND('',#355,.T.);
#388=FACE_BOUND('',#356,.T.);
#389=FACE_BOUND('',#357,.T.);
#390=FACE_BOUND('',#358,.T.);
#391=FACE_BOUND('',#359,.T.);
#392=FACE_BOUND('',#360,.T.);
#393=FACE_BOUND('',#361,.T.);
#394=FACE_BOUND('',#362,.T.);
#395=FACE_BOUND('',#363,.T.);
#396=FACE_BOUND('',#364,.T.);
#397=FACE_BOUND('',#365,.T.);
#398=FACE_BOUND('',#366,.T.);
#399=FACE_BOUND('',#367,.T.);
#400=FACE_BOUND('',#368,.T.);
#401=FACE_BOUND('',#369,.T.);
#402=FACE_BOUND('',#370,.T.);
#403=FACE_BOUND('',#371,.T.);
#404=FACE_BOUND('',#372,.T.);
#405=FACE_BOUND('',#373,.T.);
#406=FACE_BOUND('',#374,.T.);
#407=FACE_BOUND('',#375,.T.);
#408=FACE_BOUND('',#376,.T.);
#409=FACE_BOUND('',#377,.T.);
#410=FACE_BOUND('',#378,.T.);
#411=FACE_BOUND('',#379,.T.);
#412=FACE_BOUND('',#380,.T.);
#413=FACE_BOUND('',#381,.T.);
#414=PLANE('',#489);
#415=PLANE('',#490);
#416=PLANE('',#491);
#417=PLANE('',#492);
#418=PLANE('',#493);
#419=PLANE('',#494);
#420=PLANE('',#495);
#421=PLANE('',#496);
#422=PLANE('',#497);
#423=PLANE('',#504);
#424=PLANE('',#506);
#425=PLANE('',#507);
#426=PLANE('',#508);
#427=PLANE('',#509);
#428=PLANE('',#510);
#429=PLANE('',#511);
#430=PLANE('',#512);
#431=PLANE('',#513);
#432=PLANE('',#514);
#433=PLANE('',#515);
#434=PLANE('',#516);
#435=PLANE('',#517);
#436=PLANE('',#518);
#437=ADVANCED_FACE('',(#382),#414,.F.);
#438=ADVANCED_FACE('',(#383),#415,.F.);
#439=ADVANCED_FACE('',(#384),#416,.T.);
#440=ADVANCED_FACE('',(#385),#417,.T.);
#441=ADVANCED_FACE('',(#386),#418,.T.);
#442=ADVANCED_FACE('',(#387),#419,.F.);
#443=ADVANCED_FACE('',(#388),#420,.F.);
#444=ADVANCED_FACE('',(#389),#421,.F.);
#445=ADVANCED_FACE('',(#390,#391,#392),#422,.F.);
#446=ADVANCED_FACE('',(#393,#394),#22,.F.);
#447=ADVANCED_FACE('',(#395,#396),#23,.F.);
#448=ADVANCED_FACE('',(#397,#398,#399),#423,.T.);
#449=ADVANCED_FACE('',(#400),#424,.T.);
#450=ADVANCED_FACE('',(#401),#425,.T.);
#451=ADVANCED_FACE('',(#402),#426,.T.);
#452=ADVANCED_FACE('',(#403),#427,.T.);
#453=ADVANCED_FACE('',(#404,#405),#428,.F.);
#454=ADVANCED_FACE('',(#406),#429,.F.);
#455=ADVANCED_FACE('',(#407),#430,.F.);
#456=ADVANCED_FACE('',(#408),#431,.F.);
#457=ADVANCED_FACE('',(#409),#432,.F.);
#458=ADVANCED_FACE('',(#410),#433,.F.);
#459=ADVANCED_FACE('',(#411),#434,.F.);
#460=ADVANCED_FACE('',(#412),#435,.T.);
#461=ADVANCED_FACE('',(#413),#436,.T.);
#462=CLOSED_SHELL('',(#437,#438,#439,#440,#441,#442,#443,#444,#445,#446,
#447,#448));
#463=CLOSED_SHELL('',(#449,#450,#451,#452,#453,#454,#455,#456,#457,#458,
#459,#460,#461));
#464=STYLED_ITEM('',(#466),#480);
#465=STYLED_ITEM('',(#467),#481);
#466=PRESENTATION_STYLE_ASSIGNMENT((#468));
#467=PRESENTATION_STYLE_ASSIGNMENT((#469));
#468=SURFACE_STYLE_USAGE(.BOTH.,#470);
#469=SURFACE_STYLE_USAGE(.BOTH.,#471);
#470=SURFACE_SIDE_STYLE('',(#472));
#471=SURFACE_SIDE_STYLE('',(#473));
#472=SURFACE_STYLE_FILL_AREA(#474);
#473=SURFACE_STYLE_FILL_AREA(#475);
#474=FILL_AREA_STYLE('',(#476));
#475=FILL_AREA_STYLE('',(#477));
#476=FILL_AREA_STYLE_COLOUR('',#478);
#477=FILL_AREA_STYLE_COLOUR('',#479);
#478=COLOUR_RGB('',0.917647058823529,0.917647058823529,0.917647058823529);
#479=COLOUR_RGB('',0.768627450980392,0.886274509803922,0.952941176470588);
#480=MANIFOLD_SOLID_BREP('Part 4',#462);
#481=MANIFOLD_SOLID_BREP('Part 3',#463);
#482=SHAPE_DEFINITION_REPRESENTATION(#774,#485);
#483=SHAPE_DEFINITION_REPRESENTATION(#775,#486);
#484=SHAPE_DEFINITION_REPRESENTATION(#777,#487);
#485=SHAPE_REPRESENTATION('Assembly 1',(#488,#505,#519),#765);
#486=SHAPE_REPRESENTATION('Part 4',(#488),#766);
#487=SHAPE_REPRESENTATION('Part 3',(#488),#767);
#488=AXIS2_PLACEMENT_3D('',#638,#520,#521);
#489=AXIS2_PLACEMENT_3D('',#639,#522,#523);
#490=AXIS2_PLACEMENT_3D('',#648,#528,#529);
#491=AXIS2_PLACEMENT_3D('',#657,#534,#535);
#492=AXIS2_PLACEMENT_3D('',#668,#542,#543);
#493=AXIS2_PLACEMENT_3D('',#672,#546,#547);
#494=AXIS2_PLACEMENT_3D('',#678,#551,#552);
#495=AXIS2_PLACEMENT_3D('',#682,#555,#556);
#496=AXIS2_PLACEMENT_3D('',#686,#560,#561);
#497=AXIS2_PLACEMENT_3D('',#687,#562,#563);
#498=AXIS2_PLACEMENT_3D('',#688,#564,#565);
#499=AXIS2_PLACEMENT_3D('',#690,#566,#567);
#500=AXIS2_PLACEMENT_3D('',#692,#568,#569);
#501=AXIS2_PLACEMENT_3D('',#693,#570,#571);
#502=AXIS2_PLACEMENT_3D('',#695,#572,#573);
#503=AXIS2_PLACEMENT_3D('',#696,#574,#575);
#504=AXIS2_PLACEMENT_3D('',#698,#576,#577);
#505=AXIS2_PLACEMENT_3D('',#699,#578,#579);
#506=AXIS2_PLACEMENT_3D('',#700,#580,#581);
#507=AXIS2_PLACEMENT_3D('',#709,#586,#587);
#508=AXIS2_PLACEMENT_3D('',#715,#591,#592);
#509=AXIS2_PLACEMENT_3D('',#721,#596,#597);
#510=AXIS2_PLACEMENT_3D('',#724,#600,#601);
#511=AXIS2_PLACEMENT_3D('',#733,#606,#607);
#512=AXIS2_PLACEMENT_3D('',#739,#611,#612);
#513=AXIS2_PLACEMENT_3D('',#745,#616,#617);
#514=AXIS2_PLACEMENT_3D('',#751,#621,#622);
#515=AXIS2_PLACEMENT_3D('',#757,#626,#627);
#516=AXIS2_PLACEMENT_3D('',#760,#630,#631);
#517=AXIS2_PLACEMENT_3D('',#761,#632,#633);
#518=AXIS2_PLACEMENT_3D('',#762,#634,#635);
#519=AXIS2_PLACEMENT_3D('',#763,#636,#637);
#520=DIRECTION('',(0.,0.,1.));
#521=DIRECTION('',(1.,0.,0.));
#522=DIRECTION('',(6.16297582203916E-33,1.,-3.441253820449E-14));
#523=DIRECTION('',(-1.,6.16297582203916E-33,-2.12083640929271E-46));
#524=DIRECTION('',(1.,3.9735862169298E-30,1.15648231731787E-16));
#525=DIRECTION('',(-3.46944695195362E-16,3.441253820449E-14,1.));
#526=DIRECTION('',(1.,3.40505061796525E-30,9.91270557701033E-17));
#527=DIRECTION('',(-3.03576608295941E-16,3.441253820449E-14,1.));
#528=DIRECTION('',(-1.98254111540206E-16,3.441253820449E-14,1.));
#529=DIRECTION('',(0.,-1.,3.441253820449E-14));
#530=DIRECTION('',(6.16297582203916E-33,1.,-3.441253820449E-14));
#531=DIRECTION('',(1.,6.81626421175254E-30,1.98254111540206E-16));
#532=DIRECTION('',(6.16297582203916E-33,1.,-3.441253820449E-14));
#533=DIRECTION('',(1.,6.81626421175254E-30,1.98254111540206E-16));
#534=DIRECTION('',(-1.,-1.04406786551515E-29,-3.03576608295941E-16));
#535=DIRECTION('',(-3.03576608295941E-16,0.,1.));
#536=DIRECTION('',(9.17507282161684E-32,1.,-3.46944695195362E-14));
#537=DIRECTION('',(6.16297582203916E-33,1.,-3.441253820449E-14));
#538=DIRECTION('',(-3.03576608295941E-16,3.441253820449E-14,1.));
#539=DIRECTION('',(-3.03576608295941E-16,3.441253820449E-14,1.));
#540=DIRECTION('',(9.17507282161684E-32,1.,-3.46944695195362E-14));
#541=DIRECTION('',(3.03576608295941E-16,-3.4231876592609E-14,-1.));
#542=DIRECTION('',(-9.91270557701033E-17,3.441253820449E-14,1.));
#543=DIRECTION('',(0.,-1.,3.441253820449E-14));
#544=DIRECTION('',(6.16297582203916E-33,1.,-3.441253820449E-14));
#545=DIRECTION('',(1.,3.40505061796525E-30,9.91270557701033E-17));
#546=DIRECTION('',(-1.15648231731787E-16,3.441253820449E-14,1.));
#547=DIRECTION('',(0.,-1.,3.441253820449E-14));
#548=DIRECTION('',(1.,3.9735862169298E-30,1.15648231731787E-16));
#549=DIRECTION('',(1.,3.9735862169298E-30,1.15648231731787E-16));
#550=DIRECTION('',(1.03977549986759E-31,1.,-3.46944695195362E-14));
#551=DIRECTION('',(-1.15648231731787E-16,3.441253820449E-14,1.));
#552=DIRECTION('',(0.,-1.,3.441253820449E-14));
#553=DIRECTION('',(1.,3.9735862169298E-30,1.15648231731787E-16));
#554=DIRECTION('',(1.03977549986759E-31,1.,-3.46944695195362E-14));
#555=DIRECTION('',(-1.,-1.19330846024335E-29,-3.46944695195362E-16));
#556=DIRECTION('',(-3.46944695195362E-16,0.,1.));
#557=DIRECTION('',(3.46944695195362E-16,-3.4231876592609E-14,-1.));
#558=DIRECTION('',(-3.46944695195362E-16,3.441253820449E-14,1.));
#559=DIRECTION('',(-3.46944695195362E-16,3.441253820449E-14,1.));
#560=DIRECTION('',(6.16297582203916E-33,1.,-3.441253820449E-14));
#561=DIRECTION('',(-1.,6.16297582203916E-33,-2.12083640929271E-46));
#562=DIRECTION('',(6.16297582203916E-33,1.,-3.441253820449E-14));
#563=DIRECTION('',(-1.,6.16297582203916E-33,-2.12083640929271E-46));
#564=DIRECTION('',(6.16297582203916E-33,1.,-3.441253820449E-14));
#565=DIRECTION('',(0.,3.441253820449E-14,1.));
#566=DIRECTION('',(6.16297582203916E-33,1.,-3.441253820449E-14));
#567=DIRECTION('',(0.,3.441253820449E-14,1.));
#568=DIRECTION('',(-6.16297582203916E-33,-1.,3.441253820449E-14));
#569=DIRECTION('',(0.,-3.441253820449E-14,-1.));
#570=DIRECTION('',(6.16297582203916E-33,1.,-3.441253820449E-14));
#571=DIRECTION('',(0.,3.441253820449E-14,1.));
#572=DIRECTION('',(-6.16297582203916E-33,-1.,3.441253820449E-14));
#573=DIRECTION('',(0.,-3.441253820449E-14,-1.));
#574=DIRECTION('',(6.16297582203916E-33,1.,-3.441253820449E-14));
#575=DIRECTION('',(0.,3.441253820449E-14,1.));
#576=DIRECTION('',(6.16297582203916E-33,1.,-3.441253820449E-14));
#577=DIRECTION('',(-1.,6.16297582203916E-33,-2.12083640929271E-46));
#578=DIRECTION('',(2.12083640929271E-46,3.441253820449E-14,-1.));
#579=DIRECTION('',(1.,-6.16297582203916E-33,0.));
#580=DIRECTION('',(0.,0.,-1.));
#581=DIRECTION('',(-1.,0.,0.));
#582=DIRECTION('',(0.,1.,0.));
#583=DIRECTION('',(-1.,0.,0.));
#584=DIRECTION('',(0.,1.,0.));
#585=DIRECTION('',(1.,0.,0.));
#586=DIRECTION('',(-1.,0.,2.1841555789946E-17));
#587=DIRECTION('',(2.1841555789946E-17,0.,1.));
#588=DIRECTION('',(0.,1.,0.));
#589=DIRECTION('',(2.1841555789946E-17,0.,1.));
#590=DIRECTION('',(0.,0.,-1.));
#591=DIRECTION('',(0.,0.,1.));
#592=DIRECTION('',(1.,0.,0.));
#593=DIRECTION('',(0.,1.,0.));
#594=DIRECTION('',(1.,0.,0.));
#595=DIRECTION('',(1.,0.,0.));
#596=DIRECTION('',(1.,0.,2.1841555789946E-17));
#597=DIRECTION('',(2.1841555789946E-17,0.,-1.));
#598=DIRECTION('',(2.1841555789946E-17,0.,-1.));
#599=DIRECTION('',(0.,0.,-1.));
#600=DIRECTION('',(0.,-1.,0.));
#601=DIRECTION('',(0.,0.,-1.));
#602=DIRECTION('',(1.,0.,0.));
#603=DIRECTION('',(0.,0.,1.));
#604=DIRECTION('',(1.,0.,0.));
#605=DIRECTION('',(0.,0.,-1.));
#606=DIRECTION('',(1.,0.,0.));
#607=DIRECTION('',(0.,0.,-1.));
#608=DIRECTION('',(0.,1.,0.));
#609=DIRECTION('',(0.,1.,0.));
#610=DIRECTION('',(0.,0.,-1.));
#611=DIRECTION('',(0.707106781186547,0.707106781186548,0.));
#612=DIRECTION('',(-0.707106781186548,0.707106781186547,0.));
#613=DIRECTION('',(-0.707106781186548,0.707106781186547,0.));
#614=DIRECTION('',(-0.707106781186548,0.707106781186548,0.));
#615=DIRECTION('',(0.,0.,1.));
#616=DIRECTION('',(0.,1.,0.));
#617=DIRECTION('',(0.,0.,1.));
#618=DIRECTION('',(1.,0.,0.));
#619=DIRECTION('',(1.,0.,0.));
#620=DIRECTION('',(0.,0.,1.));
#621=DIRECTION('',(-0.707106781186547,0.707106781186548,0.));
#622=DIRECTION('',(-0.707106781186548,-0.707106781186547,0.));
#623=DIRECTION('',(-0.707106781186548,-0.707106781186547,0.));
#624=DIRECTION('',(-0.707106781186549,-0.707106781186546,0.));
#625=DIRECTION('',(0.,0.,1.));
#626=DIRECTION('',(-1.,0.,0.));
#627=DIRECTION('',(0.,0.,1.));
#628=DIRECTION('',(0.,1.,0.));
#629=DIRECTION('',(0.,1.,0.));
#630=DIRECTION('',(0.,0.,1.));
#631=DIRECTION('',(1.,0.,0.));
#632=DIRECTION('',(0.,0.,1.));
#633=DIRECTION('',(1.,0.,0.));
#634=DIRECTION('',(0.,1.,0.));
#635=DIRECTION('',(-1.,0.,0.));
#636=DIRECTION('',(0.,0.,1.));
#637=DIRECTION('',(1.,0.,0.));
#638=CARTESIAN_POINT('',(0.,0.,0.));
#639=CARTESIAN_POINT('',(0.018348755024054,0.0255767033883493,-0.0171780734475601));
#640=CARTESIAN_POINT('',(0.018348755024054,0.0255767033883495,-0.00967807344756006));
#641=CARTESIAN_POINT('',(0.000848755024054,0.0255767033883495,-0.00967807344756006));
#642=CARTESIAN_POINT('',(0.035848755024054,0.0255767033883495,-0.00967807344756005));
#643=CARTESIAN_POINT('',(0.035848755024054,0.0255767033883493,-0.0171780734475601));
#644=CARTESIAN_POINT('',(0.035848755024054,0.0255767033883497,-0.00717807344756005));
#645=CARTESIAN_POINT('',(0.018348755024054,0.0255767033883497,-0.00717807344756006));
#646=CARTESIAN_POINT('',(0.000848755024053998,0.0255767033883497,-0.00717807344756006));
#647=CARTESIAN_POINT('',(0.000848755024054002,0.0255767033883493,-0.0171780734475601));
#648=CARTESIAN_POINT('',(0.018348755024054,0.0255767033883489,-0.02717807344756));
#649=CARTESIAN_POINT('',(0.000848755024054005,0.0255767033883489,-0.02717807344756));
#650=CARTESIAN_POINT('',(0.000848755024054005,0.0255767033883489,-0.02717807344756));
#651=CARTESIAN_POINT('',(0.000848755024054005,0.031076703388349,-0.0271780734475602));
#652=CARTESIAN_POINT('',(0.018348755024054,0.031076703388349,-0.0271780734475602));
#653=CARTESIAN_POINT('',(0.035848755024054,0.031076703388349,-0.0271780734475602));
#654=CARTESIAN_POINT('',(0.035848755024054,0.0255767033883489,-0.02717807344756));
#655=CARTESIAN_POINT('',(0.035848755024054,0.0255767033883489,-0.02717807344756));
#656=CARTESIAN_POINT('',(0.018348755024054,0.0255767033883489,-0.02717807344756));
#657=CARTESIAN_POINT('',(0.000848755024054002,0.0255767033883493,-0.0171780734475601));
#658=CARTESIAN_POINT('',(0.000848755024054,0.0268267033883496,-0.0096780734475601));
#659=CARTESIAN_POINT('',(0.000848755024054,0.0280767033883495,-0.00967807344756012));
#660=CARTESIAN_POINT('',(0.000848755024053998,0.0255767033883497,-0.00717807344756006));
#661=CARTESIAN_POINT('',(0.000848755024053998,0.0310767033883496,-0.00717807344756025));
#662=CARTESIAN_POINT('',(0.000848755024054002,0.0310767033883493,-0.0171780734475603));
#663=CARTESIAN_POINT('',(0.000848755024054002,0.0255767033883493,-0.0171780734475601));
#664=CARTESIAN_POINT('',(0.000848755024054004,0.025576703388349,-0.02467807344756));
#665=CARTESIAN_POINT('',(0.000848755024054004,0.026826703388349,-0.0246780734475601));
#666=CARTESIAN_POINT('',(0.000848755024054004,0.028076703388349,-0.0246780734475602));
#667=CARTESIAN_POINT('',(0.000848755024054002,0.0280767033883493,-0.0171780734475602));
#668=CARTESIAN_POINT('',(0.018348755024054,0.0255767033883497,-0.00717807344756006));
#669=CARTESIAN_POINT('',(0.035848755024054,0.0255767033883497,-0.00717807344756005));
#670=CARTESIAN_POINT('',(0.035848755024054,0.0310767033883496,-0.00717807344756024));
#671=CARTESIAN_POINT('',(0.018348755024054,0.0310767033883496,-0.00717807344756025));
#672=CARTESIAN_POINT('',(0.018348755024054,0.025576703388349,-0.02467807344756));
#673=CARTESIAN_POINT('',(0.018348755024054,0.028076703388349,-0.0246780734475602));
#674=CARTESIAN_POINT('',(0.035848755024054,0.028076703388349,-0.0246780734475602));
#675=CARTESIAN_POINT('',(0.018348755024054,0.025576703388349,-0.02467807344756));
#676=CARTESIAN_POINT('',(0.035848755024054,0.025576703388349,-0.0246780734475601));
#677=CARTESIAN_POINT('',(0.035848755024054,0.025576703388349,-0.02467807344756));
#678=CARTESIAN_POINT('',(0.018348755024054,0.0255767033883495,-0.00967807344756006));
#679=CARTESIAN_POINT('',(0.018348755024054,0.0280767033883495,-0.00967807344756015));
#680=CARTESIAN_POINT('',(0.035848755024054,0.0280767033883495,-0.00967807344756014));
#681=CARTESIAN_POINT('',(0.035848755024054,0.0255767033883495,-0.00967807344756005));
#682=CARTESIAN_POINT('',(0.035848755024054,0.0255767033883493,-0.0171780734475601));
#683=CARTESIAN_POINT('',(0.035848755024054,0.0280767033883493,-0.0171780734475602));
#684=CARTESIAN_POINT('',(0.035848755024054,0.0255767033883493,-0.0171780734475601));
#685=CARTESIAN_POINT('',(0.035848755024054,0.0310767033883493,-0.0171780734475603));
#686=CARTESIAN_POINT('',(0.018348755024054,0.0255767033883493,-0.0171780734475601));
#687=CARTESIAN_POINT('',(0.018348755024054,0.0280767033883493,-0.0171780734475602));
#688=CARTESIAN_POINT('',(0.008348765227918,0.0280767033883493,-0.0171923590070201));
#689=CARTESIAN_POINT('',(0.008348765227918,0.0280767033883494,-0.0156923590070201));
#690=CARTESIAN_POINT('',(0.02834874482019,0.0280767033883493,-0.0171637878881001));
#691=CARTESIAN_POINT('',(0.02834874482019,0.0280767033883494,-0.0156637878881001));
#692=CARTESIAN_POINT('',(0.02834874482019,0.0310767033883493,-0.0171637878881002));
#693=CARTESIAN_POINT('',(0.02834874482019,0.0310767033883493,-0.0171637878881002));
#694=CARTESIAN_POINT('',(0.02834874482019,0.0310767033883494,-0.0156637878881002));
#695=CARTESIAN_POINT('',(0.008348765227918,0.0310767033883493,-0.0171923590070202));
#696=CARTESIAN_POINT('',(0.008348765227918,0.0310767033883493,-0.0171923590070202));
#697=CARTESIAN_POINT('',(0.008348765227918,0.0310767033883494,-0.0156923590070202));
#698=CARTESIAN_POINT('',(0.018348755024054,0.0310767033883493,-0.0171780734475603));
#699=CARTESIAN_POINT('',(-0.0698305618541941,0.0441922810607846,-0.0314794124224535));
#700=CARTESIAN_POINT('',(4.33680868994202E-19,0.0111,0.165818537374305));
#701=CARTESIAN_POINT('',(-0.0032,0.0111,0.165818537374305));
#702=CARTESIAN_POINT('',(-0.0032,0.01103,0.165818537374305));
#703=CARTESIAN_POINT('',(-0.0032,0.0082,0.165818537374305));
#704=CARTESIAN_POINT('',(4.33680868994202E-19,0.01103,0.165818537374305));
#705=CARTESIAN_POINT('',(0.0032,0.01103,0.165818537374305));
#706=CARTESIAN_POINT('',(0.0032,0.0111,0.165818537374305));
#707=CARTESIAN_POINT('',(0.0032,0.0082,0.165818537374305));
#708=CARTESIAN_POINT('',(0.,0.0082,0.165818537374305));
#709=CARTESIAN_POINT('',(-0.0032,0.0111,0.175746421476632));
#710=CARTESIAN_POINT('',(-0.0032,0.0111,0.185674305578959));
#711=CARTESIAN_POINT('',(-0.0032,0.01103,0.185674305578959));
#712=CARTESIAN_POINT('',(-0.0032,0.0082,0.185674305578959));
#713=CARTESIAN_POINT('',(-0.0032,0.01103,0.175746421476632));
#714=CARTESIAN_POINT('',(-0.0032,0.0082,0.16));
#715=CARTESIAN_POINT('',(0.,0.0111,0.185674305578959));
#716=CARTESIAN_POINT('',(0.0032,0.0111,0.185674305578959));
#717=CARTESIAN_POINT('',(0.0032,0.01103,0.185674305578959));
#718=CARTESIAN_POINT('',(0.0032,0.0082,0.185674305578959));
#719=CARTESIAN_POINT('',(0.,0.01103,0.185674305578959));
#720=CARTESIAN_POINT('',(0.,0.0082,0.185674305578959));
#721=CARTESIAN_POINT('',(0.0032,0.0111,0.175746421476632));
#722=CARTESIAN_POINT('',(0.0032,0.01103,0.175746421476632));
#723=CARTESIAN_POINT('',(0.0032,0.0082,0.16));
#724=CARTESIAN_POINT('',(0.,0.0082,0.16));
#725=CARTESIAN_POINT('',(0.,0.0082,0.2));
#726=CARTESIAN_POINT('',(-0.00549933982822018,0.0082,0.2));
#727=CARTESIAN_POINT('',(0.00549933982822019,0.0082,0.2));
#728=CARTESIAN_POINT('',(0.00549933982822019,0.0082,0.16));
#729=CARTESIAN_POINT('',(0.00549933982822019,0.0082,0.16));
#730=CARTESIAN_POINT('',(0.,0.0082,0.16));
#731=CARTESIAN_POINT('',(-0.00549933982822018,0.0082,0.16));
#732=CARTESIAN_POINT('',(-0.00549933982822018,0.0082,0.16));
#733=CARTESIAN_POINT('',(-0.00549933982822018,0.0082,0.16));
#734=CARTESIAN_POINT('',(-0.00549933982822018,0.0082,0.2));
#735=CARTESIAN_POINT('',(-0.00549933982822018,0.00656,0.2));
#736=CARTESIAN_POINT('',(-0.00549933982822018,0.,0.16));
#737=CARTESIAN_POINT('',(-0.00549933982822018,0.00656,0.16));
#738=CARTESIAN_POINT('',(-0.00549933982822018,0.00656,0.16));
#739=CARTESIAN_POINT('',(-0.00549933982822018,0.00656,0.16));
#740=CARTESIAN_POINT('',(-0.00549933982822018,0.00656,0.2));
#741=CARTESIAN_POINT('',(-0.00284,0.00390066017177982,0.2));
#742=CARTESIAN_POINT('',(-0.00284,0.00390066017177982,0.16));
#743=CARTESIAN_POINT('',(-0.00284,0.00390066017177982,0.16));
#744=CARTESIAN_POINT('',(-0.00284,0.00390066017177982,0.16));
#745=CARTESIAN_POINT('',(-0.00284,0.00390066017177982,0.16));
#746=CARTESIAN_POINT('',(-0.00284,0.00390066017177982,0.2));
#747=CARTESIAN_POINT('',(0.00284,0.00390066017177982,0.2));
#748=CARTESIAN_POINT('',(0.,0.00390066017177982,0.16));
#749=CARTESIAN_POINT('',(0.00284,0.00390066017177982,0.16));
#750=CARTESIAN_POINT('',(0.00284,0.00390066017177982,0.16));
#751=CARTESIAN_POINT('',(0.00549933982822019,0.00656,0.16));
#752=CARTESIAN_POINT('',(0.00549933982822019,0.00656,0.2));
#753=CARTESIAN_POINT('',(0.00549933982822019,0.00656,0.2));
#754=CARTESIAN_POINT('',(0.00549933982822019,0.00656,0.16));
#755=CARTESIAN_POINT('',(0.00549933982822019,0.00656,0.16));
#756=CARTESIAN_POINT('',(0.00549933982822019,0.00656,0.16));
#757=CARTESIAN_POINT('',(0.00549933982822019,0.0082,0.16));
#758=CARTESIAN_POINT('',(0.00549933982822019,0.0082,0.2));
#759=CARTESIAN_POINT('',(0.00549933982822019,0.,0.16));
#760=CARTESIAN_POINT('',(0.,0.,0.16));
#761=CARTESIAN_POINT('',(0.,0.,0.2));
#762=CARTESIAN_POINT('',(5.20417042793042E-18,0.01103,0.18));
#763=CARTESIAN_POINT('',(-0.05148180683014,0.00208557767243477,-0.190047760451526));
#764=MECHANICAL_DESIGN_GEOMETRIC_PRESENTATION_REPRESENTATION('',(#464,#465),
#765);
#765=(
GEOMETRIC_REPRESENTATION_CONTEXT(3)
GLOBAL_UNCERTAINTY_ASSIGNED_CONTEXT((#768))
GLOBAL_UNIT_ASSIGNED_CONTEXT((#773,#772,#771))
REPRESENTATION_CONTEXT('Assembly 1','TOP_LEVEL_ASSEMBLY_PART')
);
#766=(
GEOMETRIC_REPRESENTATION_CONTEXT(3)
GLOBAL_UNCERTAINTY_ASSIGNED_CONTEXT((#769))
GLOBAL_UNIT_ASSIGNED_CONTEXT((#773,#772,#771))
REPRESENTATION_CONTEXT('Part 4','COMPONENT_PART')
);
#767=(
GEOMETRIC_REPRESENTATION_CONTEXT(3)
GLOBAL_UNCERTAINTY_ASSIGNED_CONTEXT((#770))
GLOBAL_UNIT_ASSIGNED_CONTEXT((#773,#772,#771))
REPRESENTATION_CONTEXT('Part 3','COMPONENT_PART')
);
#768=UNCERTAINTY_MEASURE_WITH_UNIT(LENGTH_MEASURE(1.E-8),#773,
'DISTANCE_ACCURACY_VALUE','Maximum Tolerance applied to model');
#769=UNCERTAINTY_MEASURE_WITH_UNIT(LENGTH_MEASURE(1.E-8),#773,
'DISTANCE_ACCURACY_VALUE','Maximum Tolerance applied to model');
#770=UNCERTAINTY_MEASURE_WITH_UNIT(LENGTH_MEASURE(1.E-8),#773,
'DISTANCE_ACCURACY_VALUE','Maximum Tolerance applied to model');
#771=(
NAMED_UNIT(*)
SI_UNIT($,.STERADIAN.)
SOLID_ANGLE_UNIT()
);
#772=(
NAMED_UNIT(*)
PLANE_ANGLE_UNIT()
SI_UNIT($,.RADIAN.)
);
#773=(
LENGTH_UNIT()
NAMED_UNIT(*)
SI_UNIT($,.METRE.)
);
#774=PRODUCT_DEFINITION_SHAPE('','',#779);
#775=PRODUCT_DEFINITION_SHAPE('','',#780);
#776=PRODUCT_DEFINITION_SHAPE(' ','NAUO PRDDFN',#12);
#777=PRODUCT_DEFINITION_SHAPE('','',#781);
#778=PRODUCT_DEFINITION_SHAPE(' ','NAUO PRDDFN',#13);
#779=PRODUCT_DEFINITION('','',#785,#782);
#780=PRODUCT_DEFINITION('','',#786,#783);
#781=PRODUCT_DEFINITION('','',#787,#784);
#782=PRODUCT_DEFINITION_CONTEXT('',#801,'design');
#783=PRODUCT_DEFINITION_CONTEXT('',#801,'design');
#784=PRODUCT_DEFINITION_CONTEXT('',#801,'design');
#785=PRODUCT_DEFINITION_FORMATION_WITH_SPECIFIED_SOURCE('','',#791,
 .NOT_KNOWN.);
#786=PRODUCT_DEFINITION_FORMATION_WITH_SPECIFIED_SOURCE('','',#792,
 .NOT_KNOWN.);
#787=PRODUCT_DEFINITION_FORMATION_WITH_SPECIFIED_SOURCE('','',#793,
 .NOT_KNOWN.);
#788=PRODUCT_RELATED_PRODUCT_CATEGORY('','',(#791));
#789=PRODUCT_RELATED_PRODUCT_CATEGORY('','',(#792));
#790=PRODUCT_RELATED_PRODUCT_CATEGORY('','',(#793));
#791=PRODUCT('Assembly 1','Assembly 1','Assembly 1',(#797));
#792=PRODUCT('Part 4','Part 4','Part 4',(#798));
#793=PRODUCT('Part 3','Part 3','Part 3',(#799));
#794=PRODUCT_CATEGORY('','');
#795=PRODUCT_CATEGORY('','');
#796=PRODUCT_CATEGORY('','');
#797=PRODUCT_CONTEXT('',#801,'mechanical');
#798=PRODUCT_CONTEXT('',#801,'mechanical');
#799=PRODUCT_CONTEXT('',#801,'mechanical');
#800=APPLICATION_PROTOCOL_DEFINITION('international standard',
'ap242_managed_model_based_3d_engineering',2020,#801);
#801=APPLICATION_CONTEXT('managed model based 3d engineering');
ENDSEC;
END-ISO-10303-21;
