ISO-10303-21;
HEADER;
/* Generated by software containing ST-Developer
 * from STEP Tools, Inc. (www.steptools.com) 
 */
/* OPTION: using custom renumber hook */

FILE_DESCRIPTION(
/* description */ ('STEP AP242 Edition 2',
'CAx-IF Rec.Pracs.---Representation and Presentation of Product Manufa
cturing Information (PMI)---4.0---2014-10-13',
'CAx-IF Rec.Pracs.---3D Tessellated Geometry---0.4---2014-09-14','2;1',
'CAx-IF Rec.Pracs.---User Defined Attributes---1.5---2016-08-15'),
/* implementation_level */ '2;1');

FILE_NAME(
/* name */ '6a46440fd811ae4b0a4fcc5b',
/* time_stamp */ '2026-07-02T10:57:20Z',
/* author */ (''),
/* organization */ (''),
/* preprocessor_version */ 'ST-DEVELOPER v20',
/* originating_system */ 'ONSHAPE BY PTC INC, 1.217',
/* authorisation */ '  ');

FILE_SCHEMA (('AP242_MANAGED_MODEL_BASED_3D_ENGINEERING_MIM_LF { 1 0 10303 442 3 1 4 }'));
ENDSEC;

DATA;
#10=CONTEXT_DEPENDENT_SHAPE_REPRESENTATION(#14,#939);
#11=CONTEXT_DEPENDENT_SHAPE_REPRESENTATION(#15,#941);
#12=NEXT_ASSEMBLY_USAGE_OCCURRENCE('NAUO1','Part 3','Part 3',#942,#943,
'');
#13=NEXT_ASSEMBLY_USAGE_OCCURRENCE('NAUO2','Part 2','Part 2',#942,#944,
'');
#14=(
REPRESENTATION_RELATIONSHIP(' ',' ',#593,#592)
REPRESENTATION_RELATIONSHIP_WITH_TRANSFORMATION(#16)
SHAPE_REPRESENTATION_RELATIONSHIP()
);
#15=(
REPRESENTATION_RELATIONSHIP(' ',' ',#594,#592)
REPRESENTATION_RELATIONSHIP_WITH_TRANSFORMATION(#17)
SHAPE_REPRESENTATION_RELATIONSHIP()
);
#16=ITEM_DEFINED_TRANSFORMATION(' ',' ',#595,#609);
#17=ITEM_DEFINED_TRANSFORMATION(' ',' ',#595,#627);
#18=SHAPE_REPRESENTATION_RELATIONSHIP('','',#593,#20);
#19=SHAPE_REPRESENTATION_RELATIONSHIP('','',#594,#21);
#20=ADVANCED_BREP_SHAPE_REPRESENTATION('',(#587),#929);
#21=ADVANCED_BREP_SHAPE_REPRESENTATION('',(#588),#930);
#22=ORIENTED_EDGE('',*,*,#172,.F.);
#23=ORIENTED_EDGE('',*,*,#173,.T.);
#24=ORIENTED_EDGE('',*,*,#174,.T.);
#25=ORIENTED_EDGE('',*,*,#175,.F.);
#26=ORIENTED_EDGE('',*,*,#176,.F.);
#27=ORIENTED_EDGE('',*,*,#177,.T.);
#28=ORIENTED_EDGE('',*,*,#172,.T.);
#29=ORIENTED_EDGE('',*,*,#178,.F.);
#30=ORIENTED_EDGE('',*,*,#179,.F.);
#31=ORIENTED_EDGE('',*,*,#180,.T.);
#32=ORIENTED_EDGE('',*,*,#176,.T.);
#33=ORIENTED_EDGE('',*,*,#181,.F.);
#34=ORIENTED_EDGE('',*,*,#174,.F.);
#35=ORIENTED_EDGE('',*,*,#182,.T.);
#36=ORIENTED_EDGE('',*,*,#179,.T.);
#37=ORIENTED_EDGE('',*,*,#183,.F.);
#38=ORIENTED_EDGE('',*,*,#178,.T.);
#39=ORIENTED_EDGE('',*,*,#175,.T.);
#40=ORIENTED_EDGE('',*,*,#183,.T.);
#41=ORIENTED_EDGE('',*,*,#181,.T.);
#42=ORIENTED_EDGE('',*,*,#184,.T.);
#43=ORIENTED_EDGE('',*,*,#185,.F.);
#44=ORIENTED_EDGE('',*,*,#186,.F.);
#45=ORIENTED_EDGE('',*,*,#187,.T.);
#46=ORIENTED_EDGE('',*,*,#188,.T.);
#47=ORIENTED_EDGE('',*,*,#187,.F.);
#48=ORIENTED_EDGE('',*,*,#189,.F.);
#49=ORIENTED_EDGE('',*,*,#190,.T.);
#50=ORIENTED_EDGE('',*,*,#191,.T.);
#51=ORIENTED_EDGE('',*,*,#190,.F.);
#52=ORIENTED_EDGE('',*,*,#192,.F.);
#53=ORIENTED_EDGE('',*,*,#193,.T.);
#54=ORIENTED_EDGE('',*,*,#194,.T.);
#55=ORIENTED_EDGE('',*,*,#193,.F.);
#56=ORIENTED_EDGE('',*,*,#195,.F.);
#57=ORIENTED_EDGE('',*,*,#196,.T.);
#58=ORIENTED_EDGE('',*,*,#197,.T.);
#59=ORIENTED_EDGE('',*,*,#196,.F.);
#60=ORIENTED_EDGE('',*,*,#198,.F.);
#61=ORIENTED_EDGE('',*,*,#199,.T.);
#62=ORIENTED_EDGE('',*,*,#200,.T.);
#63=ORIENTED_EDGE('',*,*,#199,.F.);
#64=ORIENTED_EDGE('',*,*,#201,.F.);
#65=ORIENTED_EDGE('',*,*,#185,.T.);
#66=ORIENTED_EDGE('',*,*,#186,.T.);
#67=ORIENTED_EDGE('',*,*,#201,.T.);
#68=ORIENTED_EDGE('',*,*,#198,.T.);
#69=ORIENTED_EDGE('',*,*,#195,.T.);
#70=ORIENTED_EDGE('',*,*,#192,.T.);
#71=ORIENTED_EDGE('',*,*,#189,.T.);
#72=ORIENTED_EDGE('',*,*,#184,.F.);
#73=ORIENTED_EDGE('',*,*,#188,.F.);
#74=ORIENTED_EDGE('',*,*,#191,.F.);
#75=ORIENTED_EDGE('',*,*,#194,.F.);
#76=ORIENTED_EDGE('',*,*,#197,.F.);
#77=ORIENTED_EDGE('',*,*,#200,.F.);
#78=ORIENTED_EDGE('',*,*,#173,.F.);
#79=ORIENTED_EDGE('',*,*,#177,.F.);
#80=ORIENTED_EDGE('',*,*,#180,.F.);
#81=ORIENTED_EDGE('',*,*,#182,.F.);
#82=ORIENTED_EDGE('',*,*,#202,.F.);
#83=ORIENTED_EDGE('',*,*,#203,.T.);
#84=ORIENTED_EDGE('',*,*,#204,.T.);
#85=ORIENTED_EDGE('',*,*,#205,.F.);
#86=ORIENTED_EDGE('',*,*,#206,.T.);
#87=ORIENTED_EDGE('',*,*,#207,.T.);
#88=ORIENTED_EDGE('',*,*,#208,.T.);
#89=ORIENTED_EDGE('',*,*,#209,.T.);
#90=ORIENTED_EDGE('',*,*,#210,.F.);
#91=ORIENTED_EDGE('',*,*,#211,.T.);
#92=ORIENTED_EDGE('',*,*,#212,.F.);
#93=ORIENTED_EDGE('',*,*,#213,.T.);
#94=ORIENTED_EDGE('',*,*,#214,.T.);
#95=ORIENTED_EDGE('',*,*,#215,.F.);
#96=ORIENTED_EDGE('',*,*,#216,.F.);
#97=ORIENTED_EDGE('',*,*,#211,.F.);
#98=ORIENTED_EDGE('',*,*,#217,.T.);
#99=ORIENTED_EDGE('',*,*,#218,.T.);
#100=ORIENTED_EDGE('',*,*,#204,.F.);
#101=ORIENTED_EDGE('',*,*,#219,.T.);
#102=ORIENTED_EDGE('',*,*,#220,.T.);
#103=ORIENTED_EDGE('',*,*,#212,.T.);
#104=ORIENTED_EDGE('',*,*,#221,.T.);
#105=ORIENTED_EDGE('',*,*,#222,.F.);
#106=ORIENTED_EDGE('',*,*,#208,.F.);
#107=ORIENTED_EDGE('',*,*,#223,.F.);
#108=ORIENTED_EDGE('',*,*,#224,.F.);
#109=ORIENTED_EDGE('',*,*,#225,.F.);
#110=ORIENTED_EDGE('',*,*,#226,.T.);
#111=ORIENTED_EDGE('',*,*,#227,.F.);
#112=ORIENTED_EDGE('',*,*,#209,.F.);
#113=ORIENTED_EDGE('',*,*,#222,.T.);
#114=ORIENTED_EDGE('',*,*,#228,.F.);
#115=ORIENTED_EDGE('',*,*,#217,.F.);
#116=ORIENTED_EDGE('',*,*,#210,.T.);
#117=ORIENTED_EDGE('',*,*,#227,.T.);
#118=ORIENTED_EDGE('',*,*,#218,.F.);
#119=ORIENTED_EDGE('',*,*,#228,.T.);
#120=ORIENTED_EDGE('',*,*,#226,.F.);
#121=ORIENTED_EDGE('',*,*,#221,.F.);
#122=ORIENTED_EDGE('',*,*,#229,.T.);
#123=ORIENTED_EDGE('',*,*,#230,.F.);
#124=ORIENTED_EDGE('',*,*,#231,.F.);
#125=ORIENTED_EDGE('',*,*,#224,.T.);
#126=ORIENTED_EDGE('',*,*,#232,.T.);
#127=ORIENTED_EDGE('',*,*,#233,.F.);
#128=ORIENTED_EDGE('',*,*,#234,.F.);
#129=ORIENTED_EDGE('',*,*,#230,.T.);
#130=ORIENTED_EDGE('',*,*,#235,.F.);
#131=ORIENTED_EDGE('',*,*,#236,.F.);
#132=ORIENTED_EDGE('',*,*,#237,.T.);
#133=ORIENTED_EDGE('',*,*,#233,.T.);
#134=ORIENTED_EDGE('',*,*,#205,.T.);
#135=ORIENTED_EDGE('',*,*,#225,.T.);
#136=ORIENTED_EDGE('',*,*,#231,.T.);
#137=ORIENTED_EDGE('',*,*,#234,.T.);
#138=ORIENTED_EDGE('',*,*,#237,.F.);
#139=ORIENTED_EDGE('',*,*,#238,.F.);
#140=ORIENTED_EDGE('',*,*,#239,.F.);
#141=ORIENTED_EDGE('',*,*,#206,.F.);
#142=ORIENTED_EDGE('',*,*,#238,.T.);
#143=ORIENTED_EDGE('',*,*,#236,.T.);
#144=ORIENTED_EDGE('',*,*,#239,.T.);
#145=ORIENTED_EDGE('',*,*,#235,.T.);
#146=ORIENTED_EDGE('',*,*,#232,.F.);
#147=ORIENTED_EDGE('',*,*,#229,.F.);
#148=ORIENTED_EDGE('',*,*,#223,.T.);
#149=ORIENTED_EDGE('',*,*,#207,.F.);
#150=ORIENTED_EDGE('',*,*,#213,.F.);
#151=ORIENTED_EDGE('',*,*,#220,.F.);
#152=ORIENTED_EDGE('',*,*,#240,.T.);
#153=ORIENTED_EDGE('',*,*,#241,.T.);
#154=ORIENTED_EDGE('',*,*,#214,.F.);
#155=ORIENTED_EDGE('',*,*,#241,.F.);
#156=ORIENTED_EDGE('',*,*,#242,.T.);
#157=ORIENTED_EDGE('',*,*,#243,.T.);
#158=ORIENTED_EDGE('',*,*,#215,.T.);
#159=ORIENTED_EDGE('',*,*,#243,.F.);
#160=ORIENTED_EDGE('',*,*,#244,.F.);
#161=ORIENTED_EDGE('',*,*,#245,.T.);
#162=ORIENTED_EDGE('',*,*,#203,.F.);
#163=ORIENTED_EDGE('',*,*,#246,.T.);
#164=ORIENTED_EDGE('',*,*,#244,.T.);
#165=ORIENTED_EDGE('',*,*,#242,.F.);
#166=ORIENTED_EDGE('',*,*,#240,.F.);
#167=ORIENTED_EDGE('',*,*,#219,.F.);
#168=ORIENTED_EDGE('',*,*,#216,.T.);
#169=ORIENTED_EDGE('',*,*,#245,.F.);
#170=ORIENTED_EDGE('',*,*,#246,.F.);
#171=ORIENTED_EDGE('',*,*,#202,.T.);
#172=EDGE_CURVE('',#247,#248,#297,.T.);
#173=EDGE_CURVE('',#247,#249,#298,.T.);
#174=EDGE_CURVE('',#249,#250,#299,.T.);
#175=EDGE_CURVE('',#248,#250,#300,.T.);
#176=EDGE_CURVE('',#251,#252,#301,.T.);
#177=EDGE_CURVE('',#251,#247,#302,.T.);
#178=EDGE_CURVE('',#252,#248,#303,.T.);
#179=EDGE_CURVE('',#253,#254,#304,.T.);
#180=EDGE_CURVE('',#253,#251,#305,.T.);
#181=EDGE_CURVE('',#254,#252,#306,.T.);
#182=EDGE_CURVE('',#249,#253,#307,.T.);
#183=EDGE_CURVE('',#250,#254,#308,.T.);
#184=EDGE_CURVE('',#255,#256,#309,.T.);
#185=EDGE_CURVE('',#257,#256,#310,.T.);
#186=EDGE_CURVE('',#258,#257,#311,.T.);
#187=EDGE_CURVE('',#258,#255,#312,.T.);
#188=EDGE_CURVE('',#259,#255,#313,.T.);
#189=EDGE_CURVE('',#260,#258,#314,.T.);
#190=EDGE_CURVE('',#260,#259,#315,.T.);
#191=EDGE_CURVE('',#261,#259,#316,.T.);
#192=EDGE_CURVE('',#262,#260,#317,.T.);
#193=EDGE_CURVE('',#262,#261,#318,.T.);
#194=EDGE_CURVE('',#263,#261,#319,.T.);
#195=EDGE_CURVE('',#264,#262,#320,.T.);
#196=EDGE_CURVE('',#264,#263,#321,.T.);
#197=EDGE_CURVE('',#265,#263,#322,.T.);
#198=EDGE_CURVE('',#266,#264,#323,.T.);
#199=EDGE_CURVE('',#266,#265,#324,.T.);
#200=EDGE_CURVE('',#256,#265,#325,.T.);
#201=EDGE_CURVE('',#257,#266,#326,.T.);
#202=EDGE_CURVE('',#267,#268,#327,.T.);
#203=EDGE_CURVE('',#267,#269,#328,.T.);
#204=EDGE_CURVE('',#269,#270,#329,.T.);
#205=EDGE_CURVE('',#271,#270,#330,.T.);
#206=EDGE_CURVE('',#271,#272,#331,.T.);
#207=EDGE_CURVE('',#272,#273,#332,.T.);
#208=EDGE_CURVE('',#273,#274,#333,.T.);
#209=EDGE_CURVE('',#274,#275,#334,.T.);
#210=EDGE_CURVE('',#276,#275,#335,.T.);
#211=EDGE_CURVE('',#276,#268,#336,.T.);
#212=EDGE_CURVE('',#277,#278,#337,.T.);
#213=EDGE_CURVE('',#277,#279,#338,.T.);
#214=EDGE_CURVE('',#279,#280,#339,.T.);
#215=EDGE_CURVE('',#281,#280,#340,.T.);
#216=EDGE_CURVE('',#268,#281,#341,.T.);
#217=EDGE_CURVE('',#276,#282,#342,.T.);
#218=EDGE_CURVE('',#282,#278,#343,.T.);
#219=EDGE_CURVE('',#269,#283,#344,.T.);
#220=EDGE_CURVE('',#283,#277,#345,.T.);
#221=EDGE_CURVE('',#278,#284,#346,.T.);
#222=EDGE_CURVE('',#274,#284,#347,.T.);
#223=EDGE_CURVE('',#285,#273,#348,.T.);
#224=EDGE_CURVE('',#286,#285,#349,.T.);
#225=EDGE_CURVE('',#270,#286,#350,.T.);
#226=EDGE_CURVE('',#284,#287,#351,.T.);
#227=EDGE_CURVE('',#275,#287,#352,.T.);
#228=EDGE_CURVE('',#282,#287,#353,.T.);
#229=EDGE_CURVE('',#285,#288,#354,.T.);
#230=EDGE_CURVE('',#289,#288,#355,.T.);
#231=EDGE_CURVE('',#286,#289,#356,.T.);
#232=EDGE_CURVE('',#288,#290,#357,.T.);
#233=EDGE_CURVE('',#291,#290,#358,.T.);
#234=EDGE_CURVE('',#289,#291,#359,.T.);
#235=EDGE_CURVE('',#292,#290,#360,.T.);
#236=EDGE_CURVE('',#293,#292,#361,.T.);
#237=EDGE_CURVE('',#293,#291,#362,.T.);
#238=EDGE_CURVE('',#271,#293,#363,.T.);
#239=EDGE_CURVE('',#272,#292,#364,.T.);
#240=EDGE_CURVE('',#283,#294,#365,.T.);
#241=EDGE_CURVE('',#294,#279,#366,.T.);
#242=EDGE_CURVE('',#294,#295,#367,.T.);
#243=EDGE_CURVE('',#295,#280,#368,.T.);
#244=EDGE_CURVE('',#296,#295,#369,.T.);
#245=EDGE_CURVE('',#296,#281,#370,.T.);
#246=EDGE_CURVE('',#267,#296,#371,.T.);
#247=VERTEX_POINT('',#772);
#248=VERTEX_POINT('',#773);
#249=VERTEX_POINT('',#775);
#250=VERTEX_POINT('',#777);
#251=VERTEX_POINT('',#781);
#252=VERTEX_POINT('',#782);
#253=VERTEX_POINT('',#787);
#254=VERTEX_POINT('',#788);
#255=VERTEX_POINT('',#796);
#256=VERTEX_POINT('',#797);
#257=VERTEX_POINT('',#799);
#258=VERTEX_POINT('',#801);
#259=VERTEX_POINT('',#805);
#260=VERTEX_POINT('',#807);
#261=VERTEX_POINT('',#811);
#262=VERTEX_POINT('',#813);
#263=VERTEX_POINT('',#817);
#264=VERTEX_POINT('',#819);
#265=VERTEX_POINT('',#823);
#266=VERTEX_POINT('',#825);
#267=VERTEX_POINT('',#836);
#268=VERTEX_POINT('',#837);
#269=VERTEX_POINT('',#839);
#270=VERTEX_POINT('',#841);
#271=VERTEX_POINT('',#843);
#272=VERTEX_POINT('',#845);
#273=VERTEX_POINT('',#847);
#274=VERTEX_POINT('',#849);
#275=VERTEX_POINT('',#851);
#276=VERTEX_POINT('',#853);
#277=VERTEX_POINT('',#857);
#278=VERTEX_POINT('',#858);
#279=VERTEX_POINT('',#860);
#280=VERTEX_POINT('',#862);
#281=VERTEX_POINT('',#864);
#282=VERTEX_POINT('',#867);
#283=VERTEX_POINT('',#871);
#284=VERTEX_POINT('',#874);
#285=VERTEX_POINT('',#877);
#286=VERTEX_POINT('',#879);
#287=VERTEX_POINT('',#883);
#288=VERTEX_POINT('',#890);
#289=VERTEX_POINT('',#892);
#290=VERTEX_POINT('',#896);
#291=VERTEX_POINT('',#898);
#292=VERTEX_POINT('',#902);
#293=VERTEX_POINT('',#904);
#294=VERTEX_POINT('',#913);
#295=VERTEX_POINT('',#917);
#296=VERTEX_POINT('',#921);
#297=LINE('',#771,#372);
#298=LINE('',#774,#373);
#299=LINE('',#776,#374);
#300=LINE('',#778,#375);
#301=LINE('',#780,#376);
#302=LINE('',#783,#377);
#303=LINE('',#784,#378);
#304=LINE('',#786,#379);
#305=LINE('',#789,#380);
#306=LINE('',#790,#381);
#307=LINE('',#792,#382);
#308=LINE('',#793,#383);
#309=LINE('',#795,#384);
#310=LINE('',#798,#385);
#311=LINE('',#800,#386);
#312=LINE('',#802,#387);
#313=LINE('',#804,#388);
#314=LINE('',#806,#389);
#315=LINE('',#808,#390);
#316=LINE('',#810,#391);
#317=LINE('',#812,#392);
#318=LINE('',#814,#393);
#319=LINE('',#816,#394);
#320=LINE('',#818,#395);
#321=LINE('',#820,#396);
#322=LINE('',#822,#397);
#323=LINE('',#824,#398);
#324=LINE('',#826,#399);
#325=LINE('',#828,#400);
#326=LINE('',#829,#401);
#327=LINE('',#835,#402);
#328=LINE('',#838,#403);
#329=LINE('',#840,#404);
#330=LINE('',#842,#405);
#331=LINE('',#844,#406);
#332=LINE('',#846,#407);
#333=LINE('',#848,#408);
#334=LINE('',#850,#409);
#335=LINE('',#852,#410);
#336=LINE('',#854,#411);
#337=LINE('',#856,#412);
#338=LINE('',#859,#413);
#339=LINE('',#861,#414);
#340=LINE('',#863,#415);
#341=LINE('',#865,#416);
#342=LINE('',#866,#417);
#343=LINE('',#868,#418);
#344=LINE('',#870,#419);
#345=LINE('',#872,#420);
#346=LINE('',#873,#421);
#347=LINE('',#875,#422);
#348=LINE('',#876,#423);
#349=LINE('',#878,#424);
#350=LINE('',#880,#425);
#351=LINE('',#882,#426);
#352=LINE('',#884,#427);
#353=LINE('',#886,#428);
#354=LINE('',#889,#429);
#355=LINE('',#891,#430);
#356=LINE('',#893,#431);
#357=LINE('',#895,#432);
#358=LINE('',#897,#433);
#359=LINE('',#899,#434);
#360=LINE('',#901,#435);
#361=LINE('',#903,#436);
#362=LINE('',#905,#437);
#363=LINE('',#907,#438);
#364=LINE('',#909,#439);
#365=LINE('',#912,#440);
#366=LINE('',#914,#441);
#367=LINE('',#916,#442);
#368=LINE('',#918,#443);
#369=LINE('',#920,#444);
#370=LINE('',#922,#445);
#371=LINE('',#924,#446);
#372=VECTOR('',#632,1.);
#373=VECTOR('',#633,1.);
#374=VECTOR('',#634,1.);
#375=VECTOR('',#635,1.);
#376=VECTOR('',#638,1.);
#377=VECTOR('',#639,1.);
#378=VECTOR('',#640,1.);
#379=VECTOR('',#643,1.);
#380=VECTOR('',#644,1.);
#381=VECTOR('',#645,1.);
#382=VECTOR('',#648,1.);
#383=VECTOR('',#649,1.);
#384=VECTOR('',#652,1.);
#385=VECTOR('',#653,1.);
#386=VECTOR('',#654,1.);
#387=VECTOR('',#655,1.);
#388=VECTOR('',#658,1.);
#389=VECTOR('',#659,1.);
#390=VECTOR('',#660,1.);
#391=VECTOR('',#663,1.);
#392=VECTOR('',#664,1.);
#393=VECTOR('',#665,1.);
#394=VECTOR('',#668,1.);
#395=VECTOR('',#669,1.);
#396=VECTOR('',#670,1.);
#397=VECTOR('',#673,1.);
#398=VECTOR('',#674,1.);
#399=VECTOR('',#675,1.);
#400=VECTOR('',#678,1.);
#401=VECTOR('',#679,1.);
#402=VECTOR('',#690,1.);
#403=VECTOR('',#691,1.);
#404=VECTOR('',#692,1.);
#405=VECTOR('',#693,1.);
#406=VECTOR('',#694,1.);
#407=VECTOR('',#695,1.);
#408=VECTOR('',#696,1.);
#409=VECTOR('',#697,1.);
#410=VECTOR('',#698,1.);
#411=VECTOR('',#699,1.);
#412=VECTOR('',#702,1.);
#413=VECTOR('',#703,1.);
#414=VECTOR('',#704,1.);
#415=VECTOR('',#705,1.);
#416=VECTOR('',#706,1.);
#417=VECTOR('',#707,1.);
#418=VECTOR('',#708,1.);
#419=VECTOR('',#711,1.);
#420=VECTOR('',#712,1.);
#421=VECTOR('',#713,1.);
#422=VECTOR('',#714,1.);
#423=VECTOR('',#715,1.);
#424=VECTOR('',#716,1.);
#425=VECTOR('',#717,1.);
#426=VECTOR('',#720,1.);
#427=VECTOR('',#721,1.);
#428=VECTOR('',#724,1.);
#429=VECTOR('',#729,1.);
#430=VECTOR('',#730,1.);
#431=VECTOR('',#731,1.);
#432=VECTOR('',#734,1.);
#433=VECTOR('',#735,1.);
#434=VECTOR('',#736,1.);
#435=VECTOR('',#739,1.);
#436=VECTOR('',#740,1.);
#437=VECTOR('',#741,1.);
#438=VECTOR('',#744,1.);
#439=VECTOR('',#747,1.);
#440=VECTOR('',#752,1.);
#441=VECTOR('',#753,1.);
#442=VECTOR('',#756,1.);
#443=VECTOR('',#757,1.);
#444=VECTOR('',#760,1.);
#445=VECTOR('',#761,1.);
#446=VECTOR('',#764,1.);
#447=EDGE_LOOP('',(#22,#23,#24,#25));
#448=EDGE_LOOP('',(#26,#27,#28,#29));
#449=EDGE_LOOP('',(#30,#31,#32,#33));
#450=EDGE_LOOP('',(#34,#35,#36,#37));
#451=EDGE_LOOP('',(#38,#39,#40,#41));
#452=EDGE_LOOP('',(#42,#43,#44,#45));
#453=EDGE_LOOP('',(#46,#47,#48,#49));
#454=EDGE_LOOP('',(#50,#51,#52,#53));
#455=EDGE_LOOP('',(#54,#55,#56,#57));
#456=EDGE_LOOP('',(#58,#59,#60,#61));
#457=EDGE_LOOP('',(#62,#63,#64,#65));
#458=EDGE_LOOP('',(#66,#67,#68,#69,#70,#71));
#459=EDGE_LOOP('',(#72,#73,#74,#75,#76,#77));
#460=EDGE_LOOP('',(#78,#79,#80,#81));
#461=EDGE_LOOP('',(#82,#83,#84,#85,#86,#87,#88,#89,#90,#91));
#462=EDGE_LOOP('',(#92,#93,#94,#95,#96,#97,#98,#99));
#463=EDGE_LOOP('',(#100,#101,#102,#103,#104,#105,#106,#107,#108,#109));
#464=EDGE_LOOP('',(#110,#111,#112,#113));
#465=EDGE_LOOP('',(#114,#115,#116,#117));
#466=EDGE_LOOP('',(#118,#119,#120,#121));
#467=EDGE_LOOP('',(#122,#123,#124,#125));
#468=EDGE_LOOP('',(#126,#127,#128,#129));
#469=EDGE_LOOP('',(#130,#131,#132,#133));
#470=EDGE_LOOP('',(#134,#135,#136,#137,#138,#139));
#471=EDGE_LOOP('',(#140,#141,#142,#143));
#472=EDGE_LOOP('',(#144,#145,#146,#147,#148,#149));
#473=EDGE_LOOP('',(#150,#151,#152,#153));
#474=EDGE_LOOP('',(#154,#155,#156,#157));
#475=EDGE_LOOP('',(#158,#159,#160,#161));
#476=EDGE_LOOP('',(#162,#163,#164,#165,#166,#167));
#477=EDGE_LOOP('',(#168,#169,#170,#171));
#478=FACE_BOUND('',#447,.T.);
#479=FACE_BOUND('',#448,.T.);
#480=FACE_BOUND('',#449,.T.);
#481=FACE_BOUND('',#450,.T.);
#482=FACE_BOUND('',#451,.T.);
#483=FACE_BOUND('',#452,.T.);
#484=FACE_BOUND('',#453,.T.);
#485=FACE_BOUND('',#454,.T.);
#486=FACE_BOUND('',#455,.T.);
#487=FACE_BOUND('',#456,.T.);
#488=FACE_BOUND('',#457,.T.);
#489=FACE_BOUND('',#458,.T.);
#490=FACE_BOUND('',#459,.T.);
#491=FACE_BOUND('',#460,.T.);
#492=FACE_BOUND('',#461,.T.);
#493=FACE_BOUND('',#462,.T.);
#494=FACE_BOUND('',#463,.T.);
#495=FACE_BOUND('',#464,.T.);
#496=FACE_BOUND('',#465,.T.);
#497=FACE_BOUND('',#466,.T.);
#498=FACE_BOUND('',#467,.T.);
#499=FACE_BOUND('',#468,.T.);
#500=FACE_BOUND('',#469,.T.);
#501=FACE_BOUND('',#470,.T.);
#502=FACE_BOUND('',#471,.T.);
#503=FACE_BOUND('',#472,.T.);
#504=FACE_BOUND('',#473,.T.);
#505=FACE_BOUND('',#474,.T.);
#506=FACE_BOUND('',#475,.T.);
#507=FACE_BOUND('',#476,.T.);
#508=FACE_BOUND('',#477,.T.);
#509=PLANE('',#596);
#510=PLANE('',#597);
#511=PLANE('',#598);
#512=PLANE('',#599);
#513=PLANE('',#600);
#514=PLANE('',#601);
#515=PLANE('',#602);
#516=PLANE('',#603);
#517=PLANE('',#604);
#518=PLANE('',#605);
#519=PLANE('',#606);
#520=PLANE('',#607);
#521=PLANE('',#608);
#522=PLANE('',#610);
#523=PLANE('',#611);
#524=PLANE('',#612);
#525=PLANE('',#613);
#526=PLANE('',#614);
#527=PLANE('',#615);
#528=PLANE('',#616);
#529=PLANE('',#617);
#530=PLANE('',#618);
#531=PLANE('',#619);
#532=PLANE('',#620);
#533=PLANE('',#621);
#534=PLANE('',#622);
#535=PLANE('',#623);
#536=PLANE('',#624);
#537=PLANE('',#625);
#538=PLANE('',#626);
#539=ADVANCED_FACE('',(#478),#509,.T.);
#540=ADVANCED_FACE('',(#479),#510,.T.);
#541=ADVANCED_FACE('',(#480),#511,.T.);
#542=ADVANCED_FACE('',(#481),#512,.T.);
#543=ADVANCED_FACE('',(#482,#483),#513,.F.);
#544=ADVANCED_FACE('',(#484),#514,.F.);
#545=ADVANCED_FACE('',(#485),#515,.F.);
#546=ADVANCED_FACE('',(#486),#516,.F.);
#547=ADVANCED_FACE('',(#487),#517,.F.);
#548=ADVANCED_FACE('',(#488),#518,.F.);
#549=ADVANCED_FACE('',(#489),#519,.F.);
#550=ADVANCED_FACE('',(#490),#520,.T.);
#551=ADVANCED_FACE('',(#491),#521,.T.);
#552=ADVANCED_FACE('',(#492),#522,.T.);
#553=ADVANCED_FACE('',(#493),#523,.F.);
#554=ADVANCED_FACE('',(#494),#524,.F.);
#555=ADVANCED_FACE('',(#495),#525,.F.);
#556=ADVANCED_FACE('',(#496),#526,.T.);
#557=ADVANCED_FACE('',(#497),#527,.F.);
#558=ADVANCED_FACE('',(#498),#528,.T.);
#559=ADVANCED_FACE('',(#499),#529,.T.);
#560=ADVANCED_FACE('',(#500),#530,.F.);
#561=ADVANCED_FACE('',(#501),#531,.F.);
#562=ADVANCED_FACE('',(#502),#532,.F.);
#563=ADVANCED_FACE('',(#503),#533,.F.);
#564=ADVANCED_FACE('',(#504),#534,.T.);
#565=ADVANCED_FACE('',(#505),#535,.T.);
#566=ADVANCED_FACE('',(#506),#536,.F.);
#567=ADVANCED_FACE('',(#507),#537,.F.);
#568=ADVANCED_FACE('',(#508),#538,.F.);
#569=CLOSED_SHELL('',(#539,#540,#541,#542,#543,#544,#545,#546,#547,#548,
#549,#550,#551));
#570=CLOSED_SHELL('',(#552,#553,#554,#555,#556,#557,#558,#559,#560,#561,
#562,#563,#564,#565,#566,#567,#568));
#571=STYLED_ITEM('',(#573),#587);
#572=STYLED_ITEM('',(#574),#588);
#573=PRESENTATION_STYLE_ASSIGNMENT((#575));
#574=PRESENTATION_STYLE_ASSIGNMENT((#576));
#575=SURFACE_STYLE_USAGE(.BOTH.,#577);
#576=SURFACE_STYLE_USAGE(.BOTH.,#578);
#577=SURFACE_SIDE_STYLE('',(#579));
#578=SURFACE_SIDE_STYLE('',(#580));
#579=SURFACE_STYLE_FILL_AREA(#581);
#580=SURFACE_STYLE_FILL_AREA(#582);
#581=FILL_AREA_STYLE('',(#583));
#582=FILL_AREA_STYLE('',(#584));
#583=FILL_AREA_STYLE_COLOUR('',#585);
#584=FILL_AREA_STYLE_COLOUR('',#586);
#585=COLOUR_RGB('',0.768627450980392,0.886274509803922,0.952941176470588);
#586=COLOUR_RGB('',0.972549019607843,0.529411764705882,0.00392156862745098);
#587=MANIFOLD_SOLID_BREP('Part 3',#569);
#588=MANIFOLD_SOLID_BREP('Part 2',#570);
#589=SHAPE_DEFINITION_REPRESENTATION(#937,#592);
#590=SHAPE_DEFINITION_REPRESENTATION(#938,#593);
#591=SHAPE_DEFINITION_REPRESENTATION(#940,#594);
#592=SHAPE_REPRESENTATION('Assembly 1',(#595,#609,#627),#928);
#593=SHAPE_REPRESENTATION('Part 3',(#595),#929);
#594=SHAPE_REPRESENTATION('Part 2',(#595),#930);
#595=AXIS2_PLACEMENT_3D('',#769,#628,#629);
#596=AXIS2_PLACEMENT_3D('',#770,#630,#631);
#597=AXIS2_PLACEMENT_3D('',#779,#636,#637);
#598=AXIS2_PLACEMENT_3D('',#785,#641,#642);
#599=AXIS2_PLACEMENT_3D('',#791,#646,#647);
#600=AXIS2_PLACEMENT_3D('',#794,#650,#651);
#601=AXIS2_PLACEMENT_3D('',#803,#656,#657);
#602=AXIS2_PLACEMENT_3D('',#809,#661,#662);
#603=AXIS2_PLACEMENT_3D('',#815,#666,#667);
#604=AXIS2_PLACEMENT_3D('',#821,#671,#672);
#605=AXIS2_PLACEMENT_3D('',#827,#676,#677);
#606=AXIS2_PLACEMENT_3D('',#830,#680,#681);
#607=AXIS2_PLACEMENT_3D('',#831,#682,#683);
#608=AXIS2_PLACEMENT_3D('',#832,#684,#685);
#609=AXIS2_PLACEMENT_3D('',#833,#686,#687);
#610=AXIS2_PLACEMENT_3D('',#834,#688,#689);
#611=AXIS2_PLACEMENT_3D('',#855,#700,#701);
#612=AXIS2_PLACEMENT_3D('',#869,#709,#710);
#613=AXIS2_PLACEMENT_3D('',#881,#718,#719);
#614=AXIS2_PLACEMENT_3D('',#885,#722,#723);
#615=AXIS2_PLACEMENT_3D('',#887,#725,#726);
#616=AXIS2_PLACEMENT_3D('',#888,#727,#728);
#617=AXIS2_PLACEMENT_3D('',#894,#732,#733);
#618=AXIS2_PLACEMENT_3D('',#900,#737,#738);
#619=AXIS2_PLACEMENT_3D('',#906,#742,#743);
#620=AXIS2_PLACEMENT_3D('',#908,#745,#746);
#621=AXIS2_PLACEMENT_3D('',#910,#748,#749);
#622=AXIS2_PLACEMENT_3D('',#911,#750,#751);
#623=AXIS2_PLACEMENT_3D('',#915,#754,#755);
#624=AXIS2_PLACEMENT_3D('',#919,#758,#759);
#625=AXIS2_PLACEMENT_3D('',#923,#762,#763);
#626=AXIS2_PLACEMENT_3D('',#925,#765,#766);
#627=AXIS2_PLACEMENT_3D('',#926,#767,#768);
#628=DIRECTION('',(0.,0.,1.));
#629=DIRECTION('',(1.,0.,0.));
#630=DIRECTION('',(0.,0.,-1.));
#631=DIRECTION('',(-1.,0.,0.));
#632=DIRECTION('',(0.,-1.,0.));
#633=DIRECTION('',(1.,0.,0.));
#634=DIRECTION('',(0.,-1.,0.));
#635=DIRECTION('',(1.,0.,0.));
#636=DIRECTION('',(-1.,0.,2.1841555789946E-17));
#637=DIRECTION('',(2.1841555789946E-17,0.,1.));
#638=DIRECTION('',(0.,-1.,0.));
#639=DIRECTION('',(-2.1841555789946E-17,0.,-1.));
#640=DIRECTION('',(-2.1841555789946E-17,0.,-1.));
#641=DIRECTION('',(0.,0.,1.));
#642=DIRECTION('',(1.,0.,0.));
#643=DIRECTION('',(0.,-1.,0.));
#644=DIRECTION('',(-1.,0.,0.));
#645=DIRECTION('',(-1.,0.,0.));
#646=DIRECTION('',(1.,0.,2.1841555789946E-17));
#647=DIRECTION('',(2.1841555789946E-17,0.,-1.));
#648=DIRECTION('',(-2.1841555789946E-17,0.,1.));
#649=DIRECTION('',(-2.1841555789946E-17,0.,1.));
#650=DIRECTION('',(0.,-1.,0.));
#651=DIRECTION('',(0.,0.,-1.));
#652=DIRECTION('',(1.,0.,0.));
#653=DIRECTION('',(0.,0.,1.));
#654=DIRECTION('',(1.,0.,0.));
#655=DIRECTION('',(0.,0.,1.));
#656=DIRECTION('',(1.,0.,0.));
#657=DIRECTION('',(0.,0.,-1.));
#658=DIRECTION('',(0.,1.,0.));
#659=DIRECTION('',(0.,1.,0.));
#660=DIRECTION('',(0.,0.,1.));
#661=DIRECTION('',(0.707106781186547,0.707106781186548,0.));
#662=DIRECTION('',(-0.707106781186548,0.707106781186547,0.));
#663=DIRECTION('',(-0.707106781186548,0.707106781186547,0.));
#664=DIRECTION('',(-0.707106781186548,0.707106781186547,0.));
#665=DIRECTION('',(0.,0.,1.));
#666=DIRECTION('',(0.,1.,0.));
#667=DIRECTION('',(0.,0.,1.));
#668=DIRECTION('',(-1.,0.,0.));
#669=DIRECTION('',(-1.,0.,0.));
#670=DIRECTION('',(0.,0.,1.));
#671=DIRECTION('',(-0.707106781186547,0.707106781186548,0.));
#672=DIRECTION('',(-0.707106781186548,-0.707106781186547,0.));
#673=DIRECTION('',(-0.707106781186548,-0.707106781186547,0.));
#674=DIRECTION('',(-0.707106781186548,-0.707106781186547,0.));
#675=DIRECTION('',(0.,0.,1.));
#676=DIRECTION('',(-1.,0.,0.));
#677=DIRECTION('',(0.,0.,1.));
#678=DIRECTION('',(0.,-1.,0.));
#679=DIRECTION('',(0.,-1.,0.));
#680=DIRECTION('',(0.,0.,1.));
#681=DIRECTION('',(1.,0.,0.));
#682=DIRECTION('',(0.,0.,1.));
#683=DIRECTION('',(1.,0.,0.));
#684=DIRECTION('',(0.,1.,0.));
#685=DIRECTION('',(-1.,0.,0.));
#686=DIRECTION('',(1.15555796663234E-32,-0.573576436351046,0.819152044288992));
#687=DIRECTION('',(1.,-1.0262174401148E-17,-7.18565187410657E-18));
#688=DIRECTION('',(1.25278017343598E-17,0.819152044288992,0.573576436351046));
#689=DIRECTION('',(-1.,1.0262174401148E-17,7.18565187410657E-18));
#690=DIRECTION('',(-1.,1.0262174401148E-17,7.18565187410657E-18));
#691=DIRECTION('',(6.95432696671262E-34,-0.573576436351046,0.819152044288992));
#692=DIRECTION('',(1.,-1.0262174401148E-17,-7.18565187410657E-18));
#693=DIRECTION('',(0.,-0.573576436351046,0.819152044288992));
#694=DIRECTION('',(1.,-1.0262174401148E-17,-7.18565187410657E-18));
#695=DIRECTION('',(1.54074395550979E-33,-0.573576436351046,0.819152044288992));
#696=DIRECTION('',(1.,-1.0262174401148E-17,-7.18565187410657E-18));
#697=DIRECTION('',(-6.95432696671262E-34,0.573576436351046,-0.819152044288992));
#698=DIRECTION('',(1.,-1.0262174401148E-17,-7.18565187410657E-18));
#699=DIRECTION('',(6.95432696671262E-34,-0.573576436351046,0.819152044288992));
#700=DIRECTION('',(1.,-1.0262174401148E-17,-7.18565187410657E-18));
#701=DIRECTION('',(1.0262174401148E-17,1.,0.));
#702=DIRECTION('',(-1.25278017343598E-17,-0.819152044288992,-0.573576436351046));
#703=DIRECTION('',(-3.08148791101958E-33,0.573576436351046,-0.819152044288992));
#704=DIRECTION('',(-1.25278017343598E-17,-0.819152044288992,-0.573576436351046));
#705=DIRECTION('',(-2.31111593326469E-33,0.573576436351046,-0.819152044288992));
#706=DIRECTION('',(1.25278017343598E-17,0.819152044288992,0.573576436351046));
#707=DIRECTION('',(-1.25278017343598E-17,-0.819152044288992,-0.573576436351046));
#708=DIRECTION('',(6.95432696671262E-34,-0.573576436351046,0.819152044288992));
#709=DIRECTION('',(1.20370621524202E-33,0.573576436351046,-0.819152044288992));
#710=DIRECTION('',(0.,0.819152044288992,0.573576436351046));
#711=DIRECTION('',(1.25278017343598E-17,0.819152044288992,0.573576436351047));
#712=DIRECTION('',(-1.,1.0262174401148E-17,7.18565187410657E-18));
#713=DIRECTION('',(1.,-1.0262174401148E-17,-7.18565187410657E-18));
#714=DIRECTION('',(-1.25278017343598E-17,-0.819152044288992,-0.573576436351046));
#715=DIRECTION('',(-1.25278017343598E-17,-0.819152044288992,-0.573576436351046));
#716=DIRECTION('',(1.,-1.0262174401148E-17,-7.18565187410657E-18));
#717=DIRECTION('',(1.25278017343598E-17,0.819152044288992,0.573576436351047));
#718=DIRECTION('',(-1.,1.0262174401148E-17,7.18565187410657E-18));
#719=DIRECTION('',(-1.0262174401148E-17,-1.,0.));
#720=DIRECTION('',(-6.95432696671262E-34,0.573576436351046,-0.819152044288992));
#721=DIRECTION('',(-1.25278017343598E-17,-0.819152044288992,-0.573576436351046));
#722=DIRECTION('',(1.20370621524202E-33,0.573576436351046,-0.819152044288992));
#723=DIRECTION('',(0.,0.819152044288992,0.573576436351046));
#724=DIRECTION('',(1.,-1.0262174401148E-17,-7.18565187410657E-18));
#725=DIRECTION('',(1.25278017343598E-17,0.819152044288992,0.573576436351046));
#726=DIRECTION('',(-1.,1.0262174401148E-17,7.18565187410657E-18));
#727=DIRECTION('',(1.25278017343598E-17,0.819152044288992,0.573576436351046));
#728=DIRECTION('',(4.62223186652937E-33,-0.573576436351046,0.819152044288992));
#729=DIRECTION('',(-1.54074395550979E-33,0.573576436351046,-0.819152044288992));
#730=DIRECTION('',(1.,-1.0262174401148E-17,-7.18565187410657E-18));
#731=DIRECTION('',(-1.54074395550979E-33,0.573576436351046,-0.819152044288992));
#732=DIRECTION('',(-9.24446373305873E-33,0.573576436351046,-0.819152044288992));
#733=DIRECTION('',(2.50556034687196E-17,0.819152044288992,0.573576436351046));
#734=DIRECTION('',(-1.25278017343598E-17,-0.819152044288992,-0.573576436351046));
#735=DIRECTION('',(1.,-1.0262174401148E-17,-7.18565187410657E-18));
#736=DIRECTION('',(-1.25278017343598E-17,-0.819152044288992,-0.573576436351046));
#737=DIRECTION('',(1.25278017343598E-17,0.819152044288992,0.573576436351046));
#738=DIRECTION('',(4.62223186652937E-33,-0.573576436351046,0.819152044288992));
#739=DIRECTION('',(-3.08148791101958E-33,0.573576436351046,-0.819152044288992));
#740=DIRECTION('',(1.,-1.0262174401148E-17,-7.18565187410657E-18));
#741=DIRECTION('',(-3.08148791101958E-33,0.573576436351046,-0.819152044288992));
#742=DIRECTION('',(1.,-1.0262174401148E-17,-7.18565187410657E-18));
#743=DIRECTION('',(-1.0262174401148E-17,-1.,7.37404127180177E-35));
#744=DIRECTION('',(1.25278017343598E-17,0.819152044288992,0.573576436351046));
#745=DIRECTION('',(0.,-0.573576436351046,0.819152044288992));
#746=DIRECTION('',(-2.50556034687196E-17,-0.819152044288992,-0.573576436351046));
#747=DIRECTION('',(1.25278017343598E-17,0.819152044288992,0.573576436351046));
#748=DIRECTION('',(-1.,1.0262174401148E-17,7.18565187410657E-18));
#749=DIRECTION('',(1.0262174401148E-17,1.,0.));
#750=DIRECTION('',(1.25278017343598E-17,0.819152044288992,0.573576436351046));
#751=DIRECTION('',(0.,-0.573576436351046,0.819152044288992));
#752=DIRECTION('',(-3.08148791101958E-33,0.573576436351046,-0.819152044288992));
#753=DIRECTION('',(-1.,1.0262174401148E-17,7.18565187410657E-18));
#754=DIRECTION('',(-9.78011299884143E-33,0.573576436351046,-0.819152044288992));
#755=DIRECTION('',(0.,0.819152044288992,0.573576436351046));
#756=DIRECTION('',(-1.25278017343598E-17,-0.819152044288992,-0.573576436351046));
#757=DIRECTION('',(-1.,1.0262174401148E-17,7.18565187410657E-18));
#758=DIRECTION('',(1.25278017343598E-17,0.819152044288992,0.573576436351046));
#759=DIRECTION('',(0.,-0.573576436351046,0.819152044288992));
#760=DIRECTION('',(-2.31111593326469E-33,0.573576436351046,-0.819152044288992));
#761=DIRECTION('',(-1.,1.0262174401148E-17,7.18565187410657E-18));
#762=DIRECTION('',(-1.,1.0262174401148E-17,7.18565187410657E-18));
#763=DIRECTION('',(-1.0262174401148E-17,-1.,7.37404127180177E-35));
#764=DIRECTION('',(1.25278017343598E-17,0.819152044288992,0.573576436351046));
#765=DIRECTION('',(0.,-0.573576436351046,0.819152044288992));
#766=DIRECTION('',(0.,-0.819152044288992,-0.573576436351046));
#767=DIRECTION('',(0.,0.,1.));
#768=DIRECTION('',(1.,0.,0.));
#769=CARTESIAN_POINT('',(0.,0.,0.));
#770=CARTESIAN_POINT('',(4.33680868994202E-19,0.0111,0.165818537374305));
#771=CARTESIAN_POINT('',(-0.0032,0.0111,0.165818537374305));
#772=CARTESIAN_POINT('',(-0.0032,0.01103,0.165818537374305));
#773=CARTESIAN_POINT('',(-0.0032,0.0082,0.165818537374305));
#774=CARTESIAN_POINT('',(4.33680868994202E-19,0.01103,0.165818537374305));
#775=CARTESIAN_POINT('',(0.0032,0.01103,0.165818537374305));
#776=CARTESIAN_POINT('',(0.0032,0.0111,0.165818537374305));
#777=CARTESIAN_POINT('',(0.0032,0.0082,0.165818537374305));
#778=CARTESIAN_POINT('',(4.33680868994202E-19,0.0082,0.165818537374305));
#779=CARTESIAN_POINT('',(-0.0032,0.0111,0.175746421476632));
#780=CARTESIAN_POINT('',(-0.0032,0.0111,0.185674305578959));
#781=CARTESIAN_POINT('',(-0.0032,0.01103,0.185674305578959));
#782=CARTESIAN_POINT('',(-0.0032,0.0082,0.185674305578959));
#783=CARTESIAN_POINT('',(-0.0032,0.01103,0.175746421476632));
#784=CARTESIAN_POINT('',(-0.0032,0.0082,0.175746421476632));
#785=CARTESIAN_POINT('',(0.,0.0111,0.185674305578959));
#786=CARTESIAN_POINT('',(0.0032,0.0111,0.185674305578959));
#787=CARTESIAN_POINT('',(0.0032,0.01103,0.185674305578959));
#788=CARTESIAN_POINT('',(0.0032,0.0082,0.185674305578959));
#789=CARTESIAN_POINT('',(0.,0.01103,0.185674305578959));
#790=CARTESIAN_POINT('',(0.,0.0082,0.185674305578959));
#791=CARTESIAN_POINT('',(0.0032,0.0111,0.175746421476632));
#792=CARTESIAN_POINT('',(0.0032,0.01103,0.175746421476632));
#793=CARTESIAN_POINT('',(0.0032,0.0082,0.175746421476632));
#794=CARTESIAN_POINT('',(0.,0.0082,0.16));
#795=CARTESIAN_POINT('',(0.,0.0082,0.2));
#796=CARTESIAN_POINT('',(-0.00549933982822018,0.0082,0.2));
#797=CARTESIAN_POINT('',(0.00549933982822019,0.0082,0.2));
#798=CARTESIAN_POINT('',(0.00549933982822019,0.0082,0.16));
#799=CARTESIAN_POINT('',(0.00549933982822019,0.0082,0.16));
#800=CARTESIAN_POINT('',(0.,0.0082,0.16));
#801=CARTESIAN_POINT('',(-0.00549933982822018,0.0082,0.16));
#802=CARTESIAN_POINT('',(-0.00549933982822018,0.0082,0.16));
#803=CARTESIAN_POINT('',(-0.00549933982822018,0.0082,0.16));
#804=CARTESIAN_POINT('',(-0.00549933982822018,0.0082,0.2));
#805=CARTESIAN_POINT('',(-0.00549933982822018,0.00656,0.2));
#806=CARTESIAN_POINT('',(-0.00549933982822018,0.0082,0.16));
#807=CARTESIAN_POINT('',(-0.00549933982822018,0.00656,0.16));
#808=CARTESIAN_POINT('',(-0.00549933982822018,0.00656,0.16));
#809=CARTESIAN_POINT('',(-0.00549933982822018,0.00656,0.16));
#810=CARTESIAN_POINT('',(-0.00549933982822018,0.00656,0.2));
#811=CARTESIAN_POINT('',(-0.00284,0.00390066017177982,0.2));
#812=CARTESIAN_POINT('',(-0.00549933982822018,0.00656,0.16));
#813=CARTESIAN_POINT('',(-0.00284,0.00390066017177982,0.16));
#814=CARTESIAN_POINT('',(-0.00284,0.00390066017177982,0.16));
#815=CARTESIAN_POINT('',(-0.00284,0.00390066017177982,0.16));
#816=CARTESIAN_POINT('',(-0.00284,0.00390066017177982,0.2));
#817=CARTESIAN_POINT('',(0.00284,0.00390066017177982,0.2));
#818=CARTESIAN_POINT('',(-0.00284,0.00390066017177982,0.16));
#819=CARTESIAN_POINT('',(0.00284,0.00390066017177982,0.16));
#820=CARTESIAN_POINT('',(0.00284,0.00390066017177982,0.16));
#821=CARTESIAN_POINT('',(0.00549933982822019,0.00656,0.16));
#822=CARTESIAN_POINT('',(0.00549933982822019,0.00656,0.2));
#823=CARTESIAN_POINT('',(0.00549933982822019,0.00656,0.2));
#824=CARTESIAN_POINT('',(0.00549933982822019,0.00656,0.16));
#825=CARTESIAN_POINT('',(0.00549933982822019,0.00656,0.16));
#826=CARTESIAN_POINT('',(0.00549933982822019,0.00656,0.16));
#827=CARTESIAN_POINT('',(0.00549933982822019,0.0082,0.16));
#828=CARTESIAN_POINT('',(0.00549933982822019,0.0082,0.2));
#829=CARTESIAN_POINT('',(0.00549933982822019,0.0082,0.16));
#830=CARTESIAN_POINT('',(0.,0.,0.16));
#831=CARTESIAN_POINT('',(0.,0.,0.2));
#832=CARTESIAN_POINT('',(5.20417042793042E-18,0.01103,0.18));
#833=CARTESIAN_POINT('',(0.00397802377119661,0.11812439380126,-0.109237246926167));
#834=CARTESIAN_POINT('',(-1.99999999999977E-5,0.0236809715575455,0.176424050104277));
#835=CARTESIAN_POINT('',(-0.0152,0.0174900659668491,0.185265579583558));
#836=CARTESIAN_POINT('',(-0.0152,0.0174900659668491,0.185265579583558));
#837=CARTESIAN_POINT('',(-0.0232,0.0174900659668491,0.185265579583558));
#838=CARTESIAN_POINT('',(-0.0152,0.0236809715575455,0.176424050104277));
#839=CARTESIAN_POINT('',(-0.0152,0.015195760221445,0.188542187760714));
#840=CARTESIAN_POINT('',(-2.00000000000026E-5,0.015195760221445,0.188542187760714));
#841=CARTESIAN_POINT('',(0.0148,0.015195760221445,0.188542187760714));
#842=CARTESIAN_POINT('',(0.0148,0.0236809715575455,0.176424050104277));
#843=CARTESIAN_POINT('',(0.0148,0.0174900659668491,0.185265579583558));
#844=CARTESIAN_POINT('',(0.0148,0.0174900659668491,0.185265579583558));
#845=CARTESIAN_POINT('',(0.0228,0.0174900659668491,0.185265579583558));
#846=CARTESIAN_POINT('',(0.0228,0.0236809715575455,0.176424050104277));
#847=CARTESIAN_POINT('',(0.0228,0.015195760221445,0.188542187760714));
#848=CARTESIAN_POINT('',(-2.00000000000026E-5,0.015195760221445,0.188542187760714));
#849=CARTESIAN_POINT('',(0.02316,0.015195760221445,0.188542187760714));
#850=CARTESIAN_POINT('',(0.02316,0.0236809715575455,0.176424050104277));
#851=CARTESIAN_POINT('',(0.02316,0.032166182893646,0.164305912447839));
#852=CARTESIAN_POINT('',(-1.99999999999991E-5,0.032166182893646,0.164305912447839));
#853=CARTESIAN_POINT('',(-0.0232,0.032166182893646,0.164305912447839));
#854=CARTESIAN_POINT('',(-0.0232,0.0236809715575455,0.176424050104277));
#855=CARTESIAN_POINT('',(-0.0232,0.0236809715575455,0.176424050104277));
#856=CARTESIAN_POINT('',(-0.0232,0.015195760221445,0.188542187760714));
#857=CARTESIAN_POINT('',(-0.0232,0.0303500730407913,0.199153351833209));
#858=CARTESIAN_POINT('',(-0.0232,0.0111,0.185674305578959));
#859=CARTESIAN_POINT('',(-0.0232,0.0370125710204331,0.18963831862366));
#860=CARTESIAN_POINT('',(-0.0232,0.043675069000075,0.180123285414111));
#861=CARTESIAN_POINT('',(-0.0232,0.0420367649114971,0.178976132541409));
#862=CARTESIAN_POINT('',(-0.0232,0.040398460822919,0.177828979668707));
#863=CARTESIAN_POINT('',(-0.0232,0.0348831157159793,0.185705708789677));
#864=CARTESIAN_POINT('',(-0.0232,0.0293677706090395,0.193582437910648));
#865=CARTESIAN_POINT('',(-0.0232,0.0234289182879443,0.189424008747103));
#866=CARTESIAN_POINT('',(-0.0232,0.032166182893646,0.164305912447839));
#867=CARTESIAN_POINT('',(-0.0232,0.0280704226722011,0.161438030266084));
#868=CARTESIAN_POINT('',(-0.0232,0.0195852113361006,0.173556167922522));
#869=CARTESIAN_POINT('',(-2.00000000000026E-5,0.015195760221445,0.188542187760714));
#870=CARTESIAN_POINT('',(-0.0152,0.0227729166311181,0.193847769796961));
#871=CARTESIAN_POINT('',(-0.0152,0.0303500730407913,0.199153351833209));
#872=CARTESIAN_POINT('',(-0.0152,0.0303500730407913,0.199153351833209));
#873=CARTESIAN_POINT('',(-2.00000000000027E-5,0.0111,0.185674305578959));
#874=CARTESIAN_POINT('',(0.02316,0.0111,0.185674305578959));
#875=CARTESIAN_POINT('',(0.02316,0.015195760221445,0.188542187760714));
#876=CARTESIAN_POINT('',(0.0228,0.015195760221445,0.188542187760714));
#877=CARTESIAN_POINT('',(0.0228,0.0303500730407913,0.199153351833209));
#878=CARTESIAN_POINT('',(0.0148,0.0303500730407913,0.199153351833209));
#879=CARTESIAN_POINT('',(0.0148,0.0303500730407913,0.199153351833209));
#880=CARTESIAN_POINT('',(0.0148,0.0227729166311181,0.193847769796961));
#881=CARTESIAN_POINT('',(0.02316,0.0236809715575455,0.176424050104277));
#882=CARTESIAN_POINT('',(0.02316,0.0195852113361006,0.173556167922522));
#883=CARTESIAN_POINT('',(0.02316,0.0280704226722011,0.161438030266084));
#884=CARTESIAN_POINT('',(0.02316,0.032166182893646,0.164305912447839));
#885=CARTESIAN_POINT('',(-1.99999999999991E-5,0.032166182893646,0.164305912447839));
#886=CARTESIAN_POINT('',(-1.99999999999992E-5,0.0280704226722011,0.161438030266084));
#887=CARTESIAN_POINT('',(-1.99999999999977E-5,0.0195852113361006,0.173556167922522));
#888=CARTESIAN_POINT('',(0.0148,0.0370125710204331,0.18963831862366));
#889=CARTESIAN_POINT('',(0.0228,0.0370125710204331,0.18963831862366));
#890=CARTESIAN_POINT('',(0.0228,0.043675069000075,0.180123285414111));
#891=CARTESIAN_POINT('',(0.0148,0.043675069000075,0.180123285414111));
#892=CARTESIAN_POINT('',(0.0148,0.043675069000075,0.180123285414111));
#893=CARTESIAN_POINT('',(0.0148,0.0370125710204331,0.18963831862366));
#894=CARTESIAN_POINT('',(0.0148,0.0420367649114971,0.178976132541409));
#895=CARTESIAN_POINT('',(0.0228,0.0420367649114971,0.178976132541409));
#896=CARTESIAN_POINT('',(0.0228,0.040398460822919,0.177828979668707));
#897=CARTESIAN_POINT('',(0.0148,0.040398460822919,0.177828979668707));
#898=CARTESIAN_POINT('',(0.0148,0.040398460822919,0.177828979668707));
#899=CARTESIAN_POINT('',(0.0148,0.0420367649114971,0.178976132541409));
#900=CARTESIAN_POINT('',(0.0148,0.0348831157159793,0.185705708789677));
#901=CARTESIAN_POINT('',(0.0228,0.0348831157159793,0.185705708789677));
#902=CARTESIAN_POINT('',(0.0228,0.0293677706090395,0.193582437910648));
#903=CARTESIAN_POINT('',(0.0148,0.0293677706090395,0.193582437910648));
#904=CARTESIAN_POINT('',(0.0148,0.0293677706090395,0.193582437910648));
#905=CARTESIAN_POINT('',(0.0148,0.0348831157159793,0.185705708789677));
#906=CARTESIAN_POINT('',(0.0148,0.0273875345000375,0.180295691049647));
#907=CARTESIAN_POINT('',(0.0148,0.0234289182879443,0.189424008747103));
#908=CARTESIAN_POINT('',(0.0148,0.0234289182879443,0.189424008747103));
#909=CARTESIAN_POINT('',(0.0228,0.0234289182879443,0.189424008747103));
#910=CARTESIAN_POINT('',(0.0228,0.0236809715575455,0.176424050104277));
#911=CARTESIAN_POINT('',(-0.0152,0.0370125710204331,0.18963831862366));
#912=CARTESIAN_POINT('',(-0.0152,0.0370125710204331,0.18963831862366));
#913=CARTESIAN_POINT('',(-0.0152,0.043675069000075,0.180123285414111));
#914=CARTESIAN_POINT('',(-0.0152,0.043675069000075,0.180123285414111));
#915=CARTESIAN_POINT('',(-0.0152,0.0420367649114971,0.178976132541409));
#916=CARTESIAN_POINT('',(-0.0152,0.0420367649114971,0.178976132541409));
#917=CARTESIAN_POINT('',(-0.0152,0.040398460822919,0.177828979668707));
#918=CARTESIAN_POINT('',(-0.0152,0.040398460822919,0.177828979668707));
#919=CARTESIAN_POINT('',(-0.0152,0.0348831157159793,0.185705708789677));
#920=CARTESIAN_POINT('',(-0.0152,0.0348831157159793,0.185705708789677));
#921=CARTESIAN_POINT('',(-0.0152,0.0293677706090395,0.193582437910648));
#922=CARTESIAN_POINT('',(-0.0152,0.0293677706090395,0.193582437910648));
#923=CARTESIAN_POINT('',(-0.0152,0.0273875345000375,0.180295691049647));
#924=CARTESIAN_POINT('',(-0.0152,0.0234289182879443,0.189424008747103));
#925=CARTESIAN_POINT('',(-0.0152,0.0234289182879443,0.189424008747103));
#926=CARTESIAN_POINT('',(0.00399802377119661,0.00677042338165157,-0.132503826326679));
#927=MECHANICAL_DESIGN_GEOMETRIC_PRESENTATION_REPRESENTATION('',(#571,#572),
#928);
#928=(
GEOMETRIC_REPRESENTATION_CONTEXT(3)
GLOBAL_UNCERTAINTY_ASSIGNED_CONTEXT((#931))
GLOBAL_UNIT_ASSIGNED_CONTEXT((#936,#935,#934))
REPRESENTATION_CONTEXT('Assembly 1','TOP_LEVEL_ASSEMBLY_PART')
);
#929=(
GEOMETRIC_REPRESENTATION_CONTEXT(3)
GLOBAL_UNCERTAINTY_ASSIGNED_CONTEXT((#932))
GLOBAL_UNIT_ASSIGNED_CONTEXT((#936,#935,#934))
REPRESENTATION_CONTEXT('Part 3','COMPONENT_PART')
);
#930=(
GEOMETRIC_REPRESENTATION_CONTEXT(3)
GLOBAL_UNCERTAINTY_ASSIGNED_CONTEXT((#933))
GLOBAL_UNIT_ASSIGNED_CONTEXT((#936,#935,#934))
REPRESENTATION_CONTEXT('Part 2','COMPONENT_PART')
);
#931=UNCERTAINTY_MEASURE_WITH_UNIT(LENGTH_MEASURE(1.E-8),#936,
'DISTANCE_ACCURACY_VALUE','Maximum Tolerance applied to model');
#932=UNCERTAINTY_MEASURE_WITH_UNIT(LENGTH_MEASURE(1.E-8),#936,
'DISTANCE_ACCURACY_VALUE','Maximum Tolerance applied to model');
#933=UNCERTAINTY_MEASURE_WITH_UNIT(LENGTH_MEASURE(1.E-8),#936,
'DISTANCE_ACCURACY_VALUE','Maximum Tolerance applied to model');
#934=(
NAMED_UNIT(*)
SI_UNIT($,.STERADIAN.)
SOLID_ANGLE_UNIT()
);
#935=(
NAMED_UNIT(*)
PLANE_ANGLE_UNIT()
SI_UNIT($,.RADIAN.)
);
#936=(
LENGTH_UNIT()
NAMED_UNIT(*)
SI_UNIT($,.METRE.)
);
#937=PRODUCT_DEFINITION_SHAPE('','',#942);
#938=PRODUCT_DEFINITION_SHAPE('','',#943);
#939=PRODUCT_DEFINITION_SHAPE(' ','NAUO PRDDFN',#12);
#940=PRODUCT_DEFINITION_SHAPE('','',#944);
#941=PRODUCT_DEFINITION_SHAPE(' ','NAUO PRDDFN',#13);
#942=PRODUCT_DEFINITION('','',#948,#945);
#943=PRODUCT_DEFINITION('','',#949,#946);
#944=PRODUCT_DEFINITION('','',#950,#947);
#945=PRODUCT_DEFINITION_CONTEXT('',#964,'design');
#946=PRODUCT_DEFINITION_CONTEXT('',#964,'design');
#947=PRODUCT_DEFINITION_CONTEXT('',#964,'design');
#948=PRODUCT_DEFINITION_FORMATION_WITH_SPECIFIED_SOURCE('','',#954,
 .NOT_KNOWN.);
#949=PRODUCT_DEFINITION_FORMATION_WITH_SPECIFIED_SOURCE('','',#955,
 .NOT_KNOWN.);
#950=PRODUCT_DEFINITION_FORMATION_WITH_SPECIFIED_SOURCE('','',#956,
 .NOT_KNOWN.);
#951=PRODUCT_RELATED_PRODUCT_CATEGORY('','',(#954));
#952=PRODUCT_RELATED_PRODUCT_CATEGORY('','',(#955));
#953=PRODUCT_RELATED_PRODUCT_CATEGORY('','',(#956));
#954=PRODUCT('Assembly 1','Assembly 1','Assembly 1',(#960));
#955=PRODUCT('Part 3','Part 3','Part 3',(#961));
#956=PRODUCT('Part 2','Part 2','Part 2',(#962));
#957=PRODUCT_CATEGORY('','');
#958=PRODUCT_CATEGORY('','');
#959=PRODUCT_CATEGORY('','');
#960=PRODUCT_CONTEXT('',#964,'mechanical');
#961=PRODUCT_CONTEXT('',#964,'mechanical');
#962=PRODUCT_CONTEXT('',#964,'mechanical');
#963=APPLICATION_PROTOCOL_DEFINITION('international standard',
'ap242_managed_model_based_3d_engineering',2020,#964);
#964=APPLICATION_CONTEXT('managed model based 3d engineering');
ENDSEC;
END-ISO-10303-21;
