ISO-10303-21;
HEADER;
/* Generated by software containing ST-Developer
 * from STEP Tools, Inc. (www.steptools.com) 
 */
/* OPTION: using custom renumber hook */

FILE_DESCRIPTION(
/* description */ ('STEP AP242 Edition 2',
'CAx-IF Rec.Pracs.---Representation and Presentation of Product Manufa
cturing Information (PMI)---4.0---2014-10-13',
'CAx-IF Rec.Pracs.---3D Tessellated Geometry---0.4---2014-09-14','2;1',
'CAx-IF Rec.Pracs.---User Defined Attributes---1.5---2016-08-15'),
/* implementation_level */ '2;1');

FILE_NAME(
/* name */ '6a44eca8f88788cf93082281',
/* time_stamp */ '2026-07-01T10:32:09Z',
/* author */ (''),
/* organization */ (''),
/* preprocessor_version */ 'ST-DEVELOPER v20',
/* originating_system */ 'ONSHAPE BY PTC INC, 1.217',
/* authorisation */ '  ');

FILE_SCHEMA (('AP242_MANAGED_MODEL_BASED_3D_ENGINEERING_MIM_LF { 1 0 10303 442 3 1 4 }'));
ENDSEC;

DATA;
#10=CONTEXT_DEPENDENT_SHAPE_REPRESENTATION(#14,#1020);
#11=CONTEXT_DEPENDENT_SHAPE_REPRESENTATION(#15,#1022);
#12=NEXT_ASSEMBLY_USAGE_OCCURRENCE('NAUO1','Part 3','Part 3',#1023,#1024,
'');
#13=NEXT_ASSEMBLY_USAGE_OCCURRENCE('NAUO2','Part 2','Part 2',#1023,#1025,
'');
#14=(
REPRESENTATION_RELATIONSHIP(' ',' ',#644,#643)
REPRESENTATION_RELATIONSHIP_WITH_TRANSFORMATION(#16)
SHAPE_REPRESENTATION_RELATIONSHIP()
);
#15=(
REPRESENTATION_RELATIONSHIP(' ',' ',#645,#643)
REPRESENTATION_RELATIONSHIP_WITH_TRANSFORMATION(#17)
SHAPE_REPRESENTATION_RELATIONSHIP()
);
#16=ITEM_DEFINED_TRANSFORMATION(' ',' ',#646,#664);
#17=ITEM_DEFINED_TRANSFORMATION(' ',' ',#646,#681);
#18=SHAPE_REPRESENTATION_RELATIONSHIP('','',#644,#20);
#19=SHAPE_REPRESENTATION_RELATIONSHIP('','',#645,#21);
#20=ADVANCED_BREP_SHAPE_REPRESENTATION('',(#638),#1010);
#21=ADVANCED_BREP_SHAPE_REPRESENTATION('',(#639),#1011);
#22=ORIENTED_EDGE('',*,*,#186,.F.);
#23=ORIENTED_EDGE('',*,*,#187,.T.);
#24=ORIENTED_EDGE('',*,*,#188,.T.);
#25=ORIENTED_EDGE('',*,*,#189,.F.);
#26=ORIENTED_EDGE('',*,*,#190,.T.);
#27=ORIENTED_EDGE('',*,*,#191,.T.);
#28=ORIENTED_EDGE('',*,*,#192,.T.);
#29=ORIENTED_EDGE('',*,*,#193,.T.);
#30=ORIENTED_EDGE('',*,*,#194,.F.);
#31=ORIENTED_EDGE('',*,*,#195,.T.);
#32=ORIENTED_EDGE('',*,*,#196,.F.);
#33=ORIENTED_EDGE('',*,*,#197,.T.);
#34=ORIENTED_EDGE('',*,*,#198,.T.);
#35=ORIENTED_EDGE('',*,*,#199,.F.);
#36=ORIENTED_EDGE('',*,*,#200,.F.);
#37=ORIENTED_EDGE('',*,*,#195,.F.);
#38=ORIENTED_EDGE('',*,*,#201,.T.);
#39=ORIENTED_EDGE('',*,*,#202,.T.);
#40=ORIENTED_EDGE('',*,*,#188,.F.);
#41=ORIENTED_EDGE('',*,*,#203,.T.);
#42=ORIENTED_EDGE('',*,*,#204,.T.);
#43=ORIENTED_EDGE('',*,*,#196,.T.);
#44=ORIENTED_EDGE('',*,*,#205,.T.);
#45=ORIENTED_EDGE('',*,*,#206,.F.);
#46=ORIENTED_EDGE('',*,*,#192,.F.);
#47=ORIENTED_EDGE('',*,*,#207,.F.);
#48=ORIENTED_EDGE('',*,*,#208,.F.);
#49=ORIENTED_EDGE('',*,*,#209,.F.);
#50=ORIENTED_EDGE('',*,*,#210,.T.);
#51=ORIENTED_EDGE('',*,*,#211,.F.);
#52=ORIENTED_EDGE('',*,*,#193,.F.);
#53=ORIENTED_EDGE('',*,*,#206,.T.);
#54=ORIENTED_EDGE('',*,*,#212,.F.);
#55=ORIENTED_EDGE('',*,*,#201,.F.);
#56=ORIENTED_EDGE('',*,*,#194,.T.);
#57=ORIENTED_EDGE('',*,*,#211,.T.);
#58=ORIENTED_EDGE('',*,*,#202,.F.);
#59=ORIENTED_EDGE('',*,*,#212,.T.);
#60=ORIENTED_EDGE('',*,*,#210,.F.);
#61=ORIENTED_EDGE('',*,*,#205,.F.);
#62=ORIENTED_EDGE('',*,*,#213,.T.);
#63=ORIENTED_EDGE('',*,*,#214,.F.);
#64=ORIENTED_EDGE('',*,*,#215,.F.);
#65=ORIENTED_EDGE('',*,*,#208,.T.);
#66=ORIENTED_EDGE('',*,*,#216,.T.);
#67=ORIENTED_EDGE('',*,*,#217,.F.);
#68=ORIENTED_EDGE('',*,*,#218,.F.);
#69=ORIENTED_EDGE('',*,*,#214,.T.);
#70=ORIENTED_EDGE('',*,*,#219,.F.);
#71=ORIENTED_EDGE('',*,*,#220,.F.);
#72=ORIENTED_EDGE('',*,*,#221,.T.);
#73=ORIENTED_EDGE('',*,*,#217,.T.);
#74=ORIENTED_EDGE('',*,*,#189,.T.);
#75=ORIENTED_EDGE('',*,*,#209,.T.);
#76=ORIENTED_EDGE('',*,*,#215,.T.);
#77=ORIENTED_EDGE('',*,*,#218,.T.);
#78=ORIENTED_EDGE('',*,*,#221,.F.);
#79=ORIENTED_EDGE('',*,*,#222,.F.);
#80=ORIENTED_EDGE('',*,*,#223,.F.);
#81=ORIENTED_EDGE('',*,*,#190,.F.);
#82=ORIENTED_EDGE('',*,*,#222,.T.);
#83=ORIENTED_EDGE('',*,*,#220,.T.);
#84=ORIENTED_EDGE('',*,*,#223,.T.);
#85=ORIENTED_EDGE('',*,*,#219,.T.);
#86=ORIENTED_EDGE('',*,*,#216,.F.);
#87=ORIENTED_EDGE('',*,*,#213,.F.);
#88=ORIENTED_EDGE('',*,*,#207,.T.);
#89=ORIENTED_EDGE('',*,*,#191,.F.);
#90=ORIENTED_EDGE('',*,*,#197,.F.);
#91=ORIENTED_EDGE('',*,*,#204,.F.);
#92=ORIENTED_EDGE('',*,*,#224,.T.);
#93=ORIENTED_EDGE('',*,*,#225,.T.);
#94=ORIENTED_EDGE('',*,*,#198,.F.);
#95=ORIENTED_EDGE('',*,*,#225,.F.);
#96=ORIENTED_EDGE('',*,*,#226,.T.);
#97=ORIENTED_EDGE('',*,*,#227,.T.);
#98=ORIENTED_EDGE('',*,*,#199,.T.);
#99=ORIENTED_EDGE('',*,*,#227,.F.);
#100=ORIENTED_EDGE('',*,*,#228,.F.);
#101=ORIENTED_EDGE('',*,*,#229,.T.);
#102=ORIENTED_EDGE('',*,*,#187,.F.);
#103=ORIENTED_EDGE('',*,*,#230,.T.);
#104=ORIENTED_EDGE('',*,*,#228,.T.);
#105=ORIENTED_EDGE('',*,*,#226,.F.);
#106=ORIENTED_EDGE('',*,*,#224,.F.);
#107=ORIENTED_EDGE('',*,*,#203,.F.);
#108=ORIENTED_EDGE('',*,*,#200,.T.);
#109=ORIENTED_EDGE('',*,*,#229,.F.);
#110=ORIENTED_EDGE('',*,*,#230,.F.);
#111=ORIENTED_EDGE('',*,*,#186,.T.);
#112=ORIENTED_EDGE('',*,*,#231,.T.);
#113=ORIENTED_EDGE('',*,*,#232,.T.);
#114=ORIENTED_EDGE('',*,*,#233,.T.);
#115=ORIENTED_EDGE('',*,*,#234,.T.);
#116=ORIENTED_EDGE('',*,*,#235,.T.);
#117=ORIENTED_EDGE('',*,*,#236,.F.);
#118=ORIENTED_EDGE('',*,*,#237,.F.);
#119=ORIENTED_EDGE('',*,*,#238,.T.);
#120=ORIENTED_EDGE('',*,*,#239,.T.);
#121=ORIENTED_EDGE('',*,*,#238,.F.);
#122=ORIENTED_EDGE('',*,*,#240,.F.);
#123=ORIENTED_EDGE('',*,*,#241,.T.);
#124=ORIENTED_EDGE('',*,*,#242,.T.);
#125=ORIENTED_EDGE('',*,*,#241,.F.);
#126=ORIENTED_EDGE('',*,*,#243,.F.);
#127=ORIENTED_EDGE('',*,*,#244,.T.);
#128=ORIENTED_EDGE('',*,*,#245,.T.);
#129=ORIENTED_EDGE('',*,*,#244,.F.);
#130=ORIENTED_EDGE('',*,*,#246,.F.);
#131=ORIENTED_EDGE('',*,*,#247,.T.);
#132=ORIENTED_EDGE('',*,*,#248,.T.);
#133=ORIENTED_EDGE('',*,*,#247,.F.);
#134=ORIENTED_EDGE('',*,*,#249,.F.);
#135=ORIENTED_EDGE('',*,*,#250,.T.);
#136=ORIENTED_EDGE('',*,*,#251,.T.);
#137=ORIENTED_EDGE('',*,*,#250,.F.);
#138=ORIENTED_EDGE('',*,*,#252,.F.);
#139=ORIENTED_EDGE('',*,*,#236,.T.);
#140=ORIENTED_EDGE('',*,*,#237,.T.);
#141=ORIENTED_EDGE('',*,*,#252,.T.);
#142=ORIENTED_EDGE('',*,*,#249,.T.);
#143=ORIENTED_EDGE('',*,*,#246,.T.);
#144=ORIENTED_EDGE('',*,*,#243,.T.);
#145=ORIENTED_EDGE('',*,*,#240,.T.);
#146=ORIENTED_EDGE('',*,*,#235,.F.);
#147=ORIENTED_EDGE('',*,*,#239,.F.);
#148=ORIENTED_EDGE('',*,*,#242,.F.);
#149=ORIENTED_EDGE('',*,*,#245,.F.);
#150=ORIENTED_EDGE('',*,*,#248,.F.);
#151=ORIENTED_EDGE('',*,*,#251,.F.);
#152=ORIENTED_EDGE('',*,*,#232,.F.);
#153=ORIENTED_EDGE('',*,*,#253,.F.);
#154=ORIENTED_EDGE('',*,*,#254,.T.);
#155=ORIENTED_EDGE('',*,*,#255,.T.);
#156=ORIENTED_EDGE('',*,*,#256,.T.);
#157=ORIENTED_EDGE('',*,*,#231,.F.);
#158=ORIENTED_EDGE('',*,*,#257,.F.);
#159=ORIENTED_EDGE('',*,*,#258,.T.);
#160=ORIENTED_EDGE('',*,*,#259,.T.);
#161=ORIENTED_EDGE('',*,*,#253,.T.);
#162=ORIENTED_EDGE('',*,*,#234,.F.);
#163=ORIENTED_EDGE('',*,*,#260,.F.);
#164=ORIENTED_EDGE('',*,*,#261,.T.);
#165=ORIENTED_EDGE('',*,*,#262,.T.);
#166=ORIENTED_EDGE('',*,*,#257,.T.);
#167=ORIENTED_EDGE('',*,*,#233,.F.);
#168=ORIENTED_EDGE('',*,*,#256,.F.);
#169=ORIENTED_EDGE('',*,*,#263,.T.);
#170=ORIENTED_EDGE('',*,*,#260,.T.);
#171=ORIENTED_EDGE('',*,*,#264,.F.);
#172=ORIENTED_EDGE('',*,*,#261,.F.);
#173=ORIENTED_EDGE('',*,*,#263,.F.);
#174=ORIENTED_EDGE('',*,*,#255,.F.);
#175=ORIENTED_EDGE('',*,*,#258,.F.);
#176=ORIENTED_EDGE('',*,*,#262,.F.);
#177=ORIENTED_EDGE('',*,*,#265,.T.);
#178=ORIENTED_EDGE('',*,*,#266,.T.);
#179=ORIENTED_EDGE('',*,*,#259,.F.);
#180=ORIENTED_EDGE('',*,*,#266,.F.);
#181=ORIENTED_EDGE('',*,*,#267,.T.);
#182=ORIENTED_EDGE('',*,*,#254,.F.);
#183=ORIENTED_EDGE('',*,*,#264,.T.);
#184=ORIENTED_EDGE('',*,*,#267,.F.);
#185=ORIENTED_EDGE('',*,*,#265,.F.);
#186=EDGE_CURVE('',#268,#269,#322,.T.);
#187=EDGE_CURVE('',#268,#270,#323,.T.);
#188=EDGE_CURVE('',#270,#271,#324,.T.);
#189=EDGE_CURVE('',#272,#271,#325,.T.);
#190=EDGE_CURVE('',#272,#273,#326,.T.);
#191=EDGE_CURVE('',#273,#274,#327,.T.);
#192=EDGE_CURVE('',#274,#275,#328,.T.);
#193=EDGE_CURVE('',#275,#276,#329,.T.);
#194=EDGE_CURVE('',#277,#276,#330,.T.);
#195=EDGE_CURVE('',#277,#269,#331,.T.);
#196=EDGE_CURVE('',#278,#279,#332,.T.);
#197=EDGE_CURVE('',#278,#280,#333,.T.);
#198=EDGE_CURVE('',#280,#281,#334,.T.);
#199=EDGE_CURVE('',#282,#281,#335,.T.);
#200=EDGE_CURVE('',#269,#282,#336,.T.);
#201=EDGE_CURVE('',#277,#283,#337,.T.);
#202=EDGE_CURVE('',#283,#279,#338,.T.);
#203=EDGE_CURVE('',#270,#284,#339,.T.);
#204=EDGE_CURVE('',#284,#278,#340,.T.);
#205=EDGE_CURVE('',#279,#285,#341,.T.);
#206=EDGE_CURVE('',#275,#285,#342,.T.);
#207=EDGE_CURVE('',#286,#274,#343,.T.);
#208=EDGE_CURVE('',#287,#286,#344,.T.);
#209=EDGE_CURVE('',#271,#287,#345,.T.);
#210=EDGE_CURVE('',#285,#288,#346,.T.);
#211=EDGE_CURVE('',#276,#288,#347,.T.);
#212=EDGE_CURVE('',#283,#288,#348,.T.);
#213=EDGE_CURVE('',#286,#289,#349,.T.);
#214=EDGE_CURVE('',#290,#289,#350,.T.);
#215=EDGE_CURVE('',#287,#290,#351,.T.);
#216=EDGE_CURVE('',#289,#291,#352,.T.);
#217=EDGE_CURVE('',#292,#291,#353,.T.);
#218=EDGE_CURVE('',#290,#292,#354,.T.);
#219=EDGE_CURVE('',#293,#291,#355,.T.);
#220=EDGE_CURVE('',#294,#293,#356,.T.);
#221=EDGE_CURVE('',#294,#292,#357,.T.);
#222=EDGE_CURVE('',#272,#294,#358,.T.);
#223=EDGE_CURVE('',#273,#293,#359,.T.);
#224=EDGE_CURVE('',#284,#295,#360,.T.);
#225=EDGE_CURVE('',#295,#280,#361,.T.);
#226=EDGE_CURVE('',#295,#296,#362,.T.);
#227=EDGE_CURVE('',#296,#281,#363,.T.);
#228=EDGE_CURVE('',#297,#296,#364,.T.);
#229=EDGE_CURVE('',#297,#282,#365,.T.);
#230=EDGE_CURVE('',#268,#297,#366,.T.);
#231=EDGE_CURVE('',#298,#299,#367,.T.);
#232=EDGE_CURVE('',#299,#300,#368,.T.);
#233=EDGE_CURVE('',#300,#301,#369,.T.);
#234=EDGE_CURVE('',#301,#298,#370,.T.);
#235=EDGE_CURVE('',#302,#303,#371,.T.);
#236=EDGE_CURVE('',#304,#303,#372,.T.);
#237=EDGE_CURVE('',#305,#304,#373,.T.);
#238=EDGE_CURVE('',#305,#302,#374,.T.);
#239=EDGE_CURVE('',#306,#302,#375,.T.);
#240=EDGE_CURVE('',#307,#305,#376,.T.);
#241=EDGE_CURVE('',#307,#306,#377,.T.);
#242=EDGE_CURVE('',#308,#306,#378,.T.);
#243=EDGE_CURVE('',#309,#307,#379,.T.);
#244=EDGE_CURVE('',#309,#308,#380,.T.);
#245=EDGE_CURVE('',#310,#308,#381,.T.);
#246=EDGE_CURVE('',#311,#309,#382,.T.);
#247=EDGE_CURVE('',#311,#310,#383,.T.);
#248=EDGE_CURVE('',#312,#310,#384,.T.);
#249=EDGE_CURVE('',#313,#311,#385,.T.);
#250=EDGE_CURVE('',#313,#312,#386,.T.);
#251=EDGE_CURVE('',#303,#312,#387,.T.);
#252=EDGE_CURVE('',#304,#313,#388,.T.);
#253=EDGE_CURVE('',#314,#299,#389,.T.);
#254=EDGE_CURVE('',#314,#315,#390,.T.);
#255=EDGE_CURVE('',#315,#316,#391,.T.);
#256=EDGE_CURVE('',#316,#300,#392,.T.);
#257=EDGE_CURVE('',#317,#298,#393,.T.);
#258=EDGE_CURVE('',#317,#318,#394,.T.);
#259=EDGE_CURVE('',#318,#314,#395,.T.);
#260=EDGE_CURVE('',#319,#301,#396,.T.);
#261=EDGE_CURVE('',#319,#320,#397,.T.);
#262=EDGE_CURVE('',#320,#317,#398,.T.);
#263=EDGE_CURVE('',#316,#319,#399,.T.);
#264=EDGE_CURVE('',#320,#315,#400,.T.);
#265=EDGE_CURVE('',#320,#321,#401,.T.);
#266=EDGE_CURVE('',#321,#318,#402,.T.);
#267=EDGE_CURVE('',#321,#315,#403,.T.);
#268=VERTEX_POINT('',#839);
#269=VERTEX_POINT('',#840);
#270=VERTEX_POINT('',#842);
#271=VERTEX_POINT('',#844);
#272=VERTEX_POINT('',#846);
#273=VERTEX_POINT('',#848);
#274=VERTEX_POINT('',#850);
#275=VERTEX_POINT('',#852);
#276=VERTEX_POINT('',#854);
#277=VERTEX_POINT('',#856);
#278=VERTEX_POINT('',#860);
#279=VERTEX_POINT('',#861);
#280=VERTEX_POINT('',#863);
#281=VERTEX_POINT('',#865);
#282=VERTEX_POINT('',#867);
#283=VERTEX_POINT('',#870);
#284=VERTEX_POINT('',#874);
#285=VERTEX_POINT('',#877);
#286=VERTEX_POINT('',#880);
#287=VERTEX_POINT('',#882);
#288=VERTEX_POINT('',#886);
#289=VERTEX_POINT('',#893);
#290=VERTEX_POINT('',#895);
#291=VERTEX_POINT('',#899);
#292=VERTEX_POINT('',#901);
#293=VERTEX_POINT('',#905);
#294=VERTEX_POINT('',#907);
#295=VERTEX_POINT('',#916);
#296=VERTEX_POINT('',#920);
#297=VERTEX_POINT('',#924);
#298=VERTEX_POINT('',#932);
#299=VERTEX_POINT('',#933);
#300=VERTEX_POINT('',#935);
#301=VERTEX_POINT('',#937);
#302=VERTEX_POINT('',#940);
#303=VERTEX_POINT('',#941);
#304=VERTEX_POINT('',#943);
#305=VERTEX_POINT('',#945);
#306=VERTEX_POINT('',#949);
#307=VERTEX_POINT('',#951);
#308=VERTEX_POINT('',#955);
#309=VERTEX_POINT('',#957);
#310=VERTEX_POINT('',#961);
#311=VERTEX_POINT('',#963);
#312=VERTEX_POINT('',#967);
#313=VERTEX_POINT('',#969);
#314=VERTEX_POINT('',#978);
#315=VERTEX_POINT('',#980);
#316=VERTEX_POINT('',#982);
#317=VERTEX_POINT('',#986);
#318=VERTEX_POINT('',#988);
#319=VERTEX_POINT('',#992);
#320=VERTEX_POINT('',#994);
#321=VERTEX_POINT('',#1002);
#322=LINE('',#838,#404);
#323=LINE('',#841,#405);
#324=LINE('',#843,#406);
#325=LINE('',#845,#407);
#326=LINE('',#847,#408);
#327=LINE('',#849,#409);
#328=LINE('',#851,#410);
#329=LINE('',#853,#411);
#330=LINE('',#855,#412);
#331=LINE('',#857,#413);
#332=LINE('',#859,#414);
#333=LINE('',#862,#415);
#334=LINE('',#864,#416);
#335=LINE('',#866,#417);
#336=LINE('',#868,#418);
#337=LINE('',#869,#419);
#338=LINE('',#871,#420);
#339=LINE('',#873,#421);
#340=LINE('',#875,#422);
#341=LINE('',#876,#423);
#342=LINE('',#878,#424);
#343=LINE('',#879,#425);
#344=LINE('',#881,#426);
#345=LINE('',#883,#427);
#346=LINE('',#885,#428);
#347=LINE('',#887,#429);
#348=LINE('',#889,#430);
#349=LINE('',#892,#431);
#350=LINE('',#894,#432);
#351=LINE('',#896,#433);
#352=LINE('',#898,#434);
#353=LINE('',#900,#435);
#354=LINE('',#902,#436);
#355=LINE('',#904,#437);
#356=LINE('',#906,#438);
#357=LINE('',#908,#439);
#358=LINE('',#910,#440);
#359=LINE('',#912,#441);
#360=LINE('',#915,#442);
#361=LINE('',#917,#443);
#362=LINE('',#919,#444);
#363=LINE('',#921,#445);
#364=LINE('',#923,#446);
#365=LINE('',#925,#447);
#366=LINE('',#927,#448);
#367=LINE('',#931,#449);
#368=LINE('',#934,#450);
#369=LINE('',#936,#451);
#370=LINE('',#938,#452);
#371=LINE('',#939,#453);
#372=LINE('',#942,#454);
#373=LINE('',#944,#455);
#374=LINE('',#946,#456);
#375=LINE('',#948,#457);
#376=LINE('',#950,#458);
#377=LINE('',#952,#459);
#378=LINE('',#954,#460);
#379=LINE('',#956,#461);
#380=LINE('',#958,#462);
#381=LINE('',#960,#463);
#382=LINE('',#962,#464);
#383=LINE('',#964,#465);
#384=LINE('',#966,#466);
#385=LINE('',#968,#467);
#386=LINE('',#970,#468);
#387=LINE('',#972,#469);
#388=LINE('',#973,#470);
#389=LINE('',#977,#471);
#390=LINE('',#979,#472);
#391=LINE('',#981,#473);
#392=LINE('',#983,#474);
#393=LINE('',#985,#475);
#394=LINE('',#987,#476);
#395=LINE('',#989,#477);
#396=LINE('',#991,#478);
#397=LINE('',#993,#479);
#398=LINE('',#995,#480);
#399=LINE('',#997,#481);
#400=LINE('',#999,#482);
#401=LINE('',#1001,#483);
#402=LINE('',#1003,#484);
#403=LINE('',#1005,#485);
#404=VECTOR('',#686,1.);
#405=VECTOR('',#687,1.);
#406=VECTOR('',#688,1.);
#407=VECTOR('',#689,1.);
#408=VECTOR('',#690,1.);
#409=VECTOR('',#691,1.);
#410=VECTOR('',#692,1.);
#411=VECTOR('',#693,1.);
#412=VECTOR('',#694,1.);
#413=VECTOR('',#695,1.);
#414=VECTOR('',#698,1.);
#415=VECTOR('',#699,1.);
#416=VECTOR('',#700,1.);
#417=VECTOR('',#701,1.);
#418=VECTOR('',#702,1.);
#419=VECTOR('',#703,1.);
#420=VECTOR('',#704,1.);
#421=VECTOR('',#707,1.);
#422=VECTOR('',#708,1.);
#423=VECTOR('',#709,1.);
#424=VECTOR('',#710,1.);
#425=VECTOR('',#711,1.);
#426=VECTOR('',#712,1.);
#427=VECTOR('',#713,1.);
#428=VECTOR('',#716,1.);
#429=VECTOR('',#717,1.);
#430=VECTOR('',#720,1.);
#431=VECTOR('',#725,1.);
#432=VECTOR('',#726,1.);
#433=VECTOR('',#727,1.);
#434=VECTOR('',#730,1.);
#435=VECTOR('',#731,1.);
#436=VECTOR('',#732,1.);
#437=VECTOR('',#735,1.);
#438=VECTOR('',#736,1.);
#439=VECTOR('',#737,1.);
#440=VECTOR('',#740,1.);
#441=VECTOR('',#743,1.);
#442=VECTOR('',#748,1.);
#443=VECTOR('',#749,1.);
#444=VECTOR('',#752,1.);
#445=VECTOR('',#753,1.);
#446=VECTOR('',#756,1.);
#447=VECTOR('',#757,1.);
#448=VECTOR('',#760,1.);
#449=VECTOR('',#767,1.);
#450=VECTOR('',#768,1.);
#451=VECTOR('',#769,1.);
#452=VECTOR('',#770,1.);
#453=VECTOR('',#771,1.);
#454=VECTOR('',#772,1.);
#455=VECTOR('',#773,1.);
#456=VECTOR('',#774,1.);
#457=VECTOR('',#777,1.);
#458=VECTOR('',#778,1.);
#459=VECTOR('',#779,1.);
#460=VECTOR('',#782,1.);
#461=VECTOR('',#783,1.);
#462=VECTOR('',#784,1.);
#463=VECTOR('',#787,1.);
#464=VECTOR('',#788,1.);
#465=VECTOR('',#789,1.);
#466=VECTOR('',#792,1.);
#467=VECTOR('',#793,1.);
#468=VECTOR('',#794,1.);
#469=VECTOR('',#797,1.);
#470=VECTOR('',#798,1.);
#471=VECTOR('',#805,1.);
#472=VECTOR('',#806,1.);
#473=VECTOR('',#807,1.);
#474=VECTOR('',#808,1.);
#475=VECTOR('',#811,1.);
#476=VECTOR('',#812,1.);
#477=VECTOR('',#813,1.);
#478=VECTOR('',#816,1.);
#479=VECTOR('',#817,1.);
#480=VECTOR('',#818,1.);
#481=VECTOR('',#821,1.);
#482=VECTOR('',#824,1.);
#483=VECTOR('',#827,1.);
#484=VECTOR('',#828,1.);
#485=VECTOR('',#831,1.);
#486=EDGE_LOOP('',(#22,#23,#24,#25,#26,#27,#28,#29,#30,#31));
#487=EDGE_LOOP('',(#32,#33,#34,#35,#36,#37,#38,#39));
#488=EDGE_LOOP('',(#40,#41,#42,#43,#44,#45,#46,#47,#48,#49));
#489=EDGE_LOOP('',(#50,#51,#52,#53));
#490=EDGE_LOOP('',(#54,#55,#56,#57));
#491=EDGE_LOOP('',(#58,#59,#60,#61));
#492=EDGE_LOOP('',(#62,#63,#64,#65));
#493=EDGE_LOOP('',(#66,#67,#68,#69));
#494=EDGE_LOOP('',(#70,#71,#72,#73));
#495=EDGE_LOOP('',(#74,#75,#76,#77,#78,#79));
#496=EDGE_LOOP('',(#80,#81,#82,#83));
#497=EDGE_LOOP('',(#84,#85,#86,#87,#88,#89));
#498=EDGE_LOOP('',(#90,#91,#92,#93));
#499=EDGE_LOOP('',(#94,#95,#96,#97));
#500=EDGE_LOOP('',(#98,#99,#100,#101));
#501=EDGE_LOOP('',(#102,#103,#104,#105,#106,#107));
#502=EDGE_LOOP('',(#108,#109,#110,#111));
#503=EDGE_LOOP('',(#112,#113,#114,#115));
#504=EDGE_LOOP('',(#116,#117,#118,#119));
#505=EDGE_LOOP('',(#120,#121,#122,#123));
#506=EDGE_LOOP('',(#124,#125,#126,#127));
#507=EDGE_LOOP('',(#128,#129,#130,#131));
#508=EDGE_LOOP('',(#132,#133,#134,#135));
#509=EDGE_LOOP('',(#136,#137,#138,#139));
#510=EDGE_LOOP('',(#140,#141,#142,#143,#144,#145));
#511=EDGE_LOOP('',(#146,#147,#148,#149,#150,#151));
#512=EDGE_LOOP('',(#152,#153,#154,#155,#156));
#513=EDGE_LOOP('',(#157,#158,#159,#160,#161));
#514=EDGE_LOOP('',(#162,#163,#164,#165,#166));
#515=EDGE_LOOP('',(#167,#168,#169,#170));
#516=EDGE_LOOP('',(#171,#172,#173,#174));
#517=EDGE_LOOP('',(#175,#176,#177,#178));
#518=EDGE_LOOP('',(#179,#180,#181,#182));
#519=EDGE_LOOP('',(#183,#184,#185));
#520=FACE_BOUND('',#486,.T.);
#521=FACE_BOUND('',#487,.T.);
#522=FACE_BOUND('',#488,.T.);
#523=FACE_BOUND('',#489,.T.);
#524=FACE_BOUND('',#490,.T.);
#525=FACE_BOUND('',#491,.T.);
#526=FACE_BOUND('',#492,.T.);
#527=FACE_BOUND('',#493,.T.);
#528=FACE_BOUND('',#494,.T.);
#529=FACE_BOUND('',#495,.T.);
#530=FACE_BOUND('',#496,.T.);
#531=FACE_BOUND('',#497,.T.);
#532=FACE_BOUND('',#498,.T.);
#533=FACE_BOUND('',#499,.T.);
#534=FACE_BOUND('',#500,.T.);
#535=FACE_BOUND('',#501,.T.);
#536=FACE_BOUND('',#502,.T.);
#537=FACE_BOUND('',#503,.T.);
#538=FACE_BOUND('',#504,.T.);
#539=FACE_BOUND('',#505,.T.);
#540=FACE_BOUND('',#506,.T.);
#541=FACE_BOUND('',#507,.T.);
#542=FACE_BOUND('',#508,.T.);
#543=FACE_BOUND('',#509,.T.);
#544=FACE_BOUND('',#510,.T.);
#545=FACE_BOUND('',#511,.T.);
#546=FACE_BOUND('',#512,.T.);
#547=FACE_BOUND('',#513,.T.);
#548=FACE_BOUND('',#514,.T.);
#549=FACE_BOUND('',#515,.T.);
#550=FACE_BOUND('',#516,.T.);
#551=FACE_BOUND('',#517,.T.);
#552=FACE_BOUND('',#518,.T.);
#553=FACE_BOUND('',#519,.T.);
#554=PLANE('',#647);
#555=PLANE('',#648);
#556=PLANE('',#649);
#557=PLANE('',#650);
#558=PLANE('',#651);
#559=PLANE('',#652);
#560=PLANE('',#653);
#561=PLANE('',#654);
#562=PLANE('',#655);
#563=PLANE('',#656);
#564=PLANE('',#657);
#565=PLANE('',#658);
#566=PLANE('',#659);
#567=PLANE('',#660);
#568=PLANE('',#661);
#569=PLANE('',#662);
#570=PLANE('',#663);
#571=PLANE('',#665);
#572=PLANE('',#666);
#573=PLANE('',#667);
#574=PLANE('',#668);
#575=PLANE('',#669);
#576=PLANE('',#670);
#577=PLANE('',#671);
#578=PLANE('',#672);
#579=PLANE('',#673);
#580=PLANE('',#674);
#581=PLANE('',#675);
#582=PLANE('',#676);
#583=PLANE('',#677);
#584=PLANE('',#678);
#585=PLANE('',#679);
#586=PLANE('',#680);
#587=ADVANCED_FACE('',(#520),#554,.T.);
#588=ADVANCED_FACE('',(#521),#555,.F.);
#589=ADVANCED_FACE('',(#522),#556,.F.);
#590=ADVANCED_FACE('',(#523),#557,.F.);
#591=ADVANCED_FACE('',(#524),#558,.T.);
#592=ADVANCED_FACE('',(#525),#559,.F.);
#593=ADVANCED_FACE('',(#526),#560,.T.);
#594=ADVANCED_FACE('',(#527),#561,.T.);
#595=ADVANCED_FACE('',(#528),#562,.F.);
#596=ADVANCED_FACE('',(#529),#563,.F.);
#597=ADVANCED_FACE('',(#530),#564,.F.);
#598=ADVANCED_FACE('',(#531),#565,.F.);
#599=ADVANCED_FACE('',(#532),#566,.T.);
#600=ADVANCED_FACE('',(#533),#567,.T.);
#601=ADVANCED_FACE('',(#534),#568,.F.);
#602=ADVANCED_FACE('',(#535),#569,.F.);
#603=ADVANCED_FACE('',(#536),#570,.F.);
#604=ADVANCED_FACE('',(#537,#538),#571,.F.);
#605=ADVANCED_FACE('',(#539),#572,.F.);
#606=ADVANCED_FACE('',(#540),#573,.F.);
#607=ADVANCED_FACE('',(#541),#574,.F.);
#608=ADVANCED_FACE('',(#542),#575,.F.);
#609=ADVANCED_FACE('',(#543),#576,.F.);
#610=ADVANCED_FACE('',(#544),#577,.F.);
#611=ADVANCED_FACE('',(#545),#578,.T.);
#612=ADVANCED_FACE('',(#546),#579,.T.);
#613=ADVANCED_FACE('',(#547),#580,.T.);
#614=ADVANCED_FACE('',(#548),#581,.T.);
#615=ADVANCED_FACE('',(#549),#582,.T.);
#616=ADVANCED_FACE('',(#550),#583,.T.);
#617=ADVANCED_FACE('',(#551),#584,.T.);
#618=ADVANCED_FACE('',(#552),#585,.T.);
#619=ADVANCED_FACE('',(#553),#586,.F.);
#620=CLOSED_SHELL('',(#587,#588,#589,#590,#591,#592,#593,#594,#595,#596,
#597,#598,#599,#600,#601,#602,#603));
#621=CLOSED_SHELL('',(#604,#605,#606,#607,#608,#609,#610,#611,#612,#613,
#614,#615,#616,#617,#618,#619));
#622=STYLED_ITEM('',(#624),#638);
#623=STYLED_ITEM('',(#625),#639);
#624=PRESENTATION_STYLE_ASSIGNMENT((#626));
#625=PRESENTATION_STYLE_ASSIGNMENT((#627));
#626=SURFACE_STYLE_USAGE(.BOTH.,#628);
#627=SURFACE_STYLE_USAGE(.BOTH.,#629);
#628=SURFACE_SIDE_STYLE('',(#630));
#629=SURFACE_SIDE_STYLE('',(#631));
#630=SURFACE_STYLE_FILL_AREA(#632);
#631=SURFACE_STYLE_FILL_AREA(#633);
#632=FILL_AREA_STYLE('',(#634));
#633=FILL_AREA_STYLE('',(#635));
#634=FILL_AREA_STYLE_COLOUR('',#636);
#635=FILL_AREA_STYLE_COLOUR('',#637);
#636=COLOUR_RGB('',0.972549019607843,0.529411764705882,0.00392156862745098);
#637=COLOUR_RGB('',0.768627450980392,0.886274509803922,0.952941176470588);
#638=MANIFOLD_SOLID_BREP('Part 3',#620);
#639=MANIFOLD_SOLID_BREP('Part 2',#621);
#640=SHAPE_DEFINITION_REPRESENTATION(#1018,#643);
#641=SHAPE_DEFINITION_REPRESENTATION(#1019,#644);
#642=SHAPE_DEFINITION_REPRESENTATION(#1021,#645);
#643=SHAPE_REPRESENTATION('Assembly 1',(#646,#664,#681),#1009);
#644=SHAPE_REPRESENTATION('Part 3',(#646),#1010);
#645=SHAPE_REPRESENTATION('Part 2',(#646),#1011);
#646=AXIS2_PLACEMENT_3D('',#836,#682,#683);
#647=AXIS2_PLACEMENT_3D('',#837,#684,#685);
#648=AXIS2_PLACEMENT_3D('',#858,#696,#697);
#649=AXIS2_PLACEMENT_3D('',#872,#705,#706);
#650=AXIS2_PLACEMENT_3D('',#884,#714,#715);
#651=AXIS2_PLACEMENT_3D('',#888,#718,#719);
#652=AXIS2_PLACEMENT_3D('',#890,#721,#722);
#653=AXIS2_PLACEMENT_3D('',#891,#723,#724);
#654=AXIS2_PLACEMENT_3D('',#897,#728,#729);
#655=AXIS2_PLACEMENT_3D('',#903,#733,#734);
#656=AXIS2_PLACEMENT_3D('',#909,#738,#739);
#657=AXIS2_PLACEMENT_3D('',#911,#741,#742);
#658=AXIS2_PLACEMENT_3D('',#913,#744,#745);
#659=AXIS2_PLACEMENT_3D('',#914,#746,#747);
#660=AXIS2_PLACEMENT_3D('',#918,#750,#751);
#661=AXIS2_PLACEMENT_3D('',#922,#754,#755);
#662=AXIS2_PLACEMENT_3D('',#926,#758,#759);
#663=AXIS2_PLACEMENT_3D('',#928,#761,#762);
#664=AXIS2_PLACEMENT_3D('',#929,#763,#764);
#665=AXIS2_PLACEMENT_3D('',#930,#765,#766);
#666=AXIS2_PLACEMENT_3D('',#947,#775,#776);
#667=AXIS2_PLACEMENT_3D('',#953,#780,#781);
#668=AXIS2_PLACEMENT_3D('',#959,#785,#786);
#669=AXIS2_PLACEMENT_3D('',#965,#790,#791);
#670=AXIS2_PLACEMENT_3D('',#971,#795,#796);
#671=AXIS2_PLACEMENT_3D('',#974,#799,#800);
#672=AXIS2_PLACEMENT_3D('',#975,#801,#802);
#673=AXIS2_PLACEMENT_3D('',#976,#803,#804);
#674=AXIS2_PLACEMENT_3D('',#984,#809,#810);
#675=AXIS2_PLACEMENT_3D('',#990,#814,#815);
#676=AXIS2_PLACEMENT_3D('',#996,#819,#820);
#677=AXIS2_PLACEMENT_3D('',#998,#822,#823);
#678=AXIS2_PLACEMENT_3D('',#1000,#825,#826);
#679=AXIS2_PLACEMENT_3D('',#1004,#829,#830);
#680=AXIS2_PLACEMENT_3D('',#1006,#832,#833);
#681=AXIS2_PLACEMENT_3D('',#1007,#834,#835);
#682=DIRECTION('',(0.,0.,1.));
#683=DIRECTION('',(1.,0.,0.));
#684=DIRECTION('',(1.25278017343598E-17,0.819152044288992,0.573576436351046));
#685=DIRECTION('',(-1.,1.0262174401148E-17,7.18565187410657E-18));
#686=DIRECTION('',(-1.,1.0262174401148E-17,7.18565187410657E-18));
#687=DIRECTION('',(6.95432696671262E-34,-0.573576436351046,0.819152044288992));
#688=DIRECTION('',(1.,-1.0262174401148E-17,-7.18565187410657E-18));
#689=DIRECTION('',(0.,-0.573576436351046,0.819152044288992));
#690=DIRECTION('',(1.,-1.0262174401148E-17,-7.18565187410657E-18));
#691=DIRECTION('',(1.54074395550979E-33,-0.573576436351046,0.819152044288992));
#692=DIRECTION('',(1.,-1.0262174401148E-17,-7.18565187410657E-18));
#693=DIRECTION('',(-6.95432696671262E-34,0.573576436351046,-0.819152044288992));
#694=DIRECTION('',(1.,-1.0262174401148E-17,-7.18565187410657E-18));
#695=DIRECTION('',(6.95432696671262E-34,-0.573576436351046,0.819152044288992));
#696=DIRECTION('',(1.,-1.0262174401148E-17,-7.18565187410657E-18));
#697=DIRECTION('',(1.0262174401148E-17,1.,0.));
#698=DIRECTION('',(-1.25278017343598E-17,-0.819152044288992,-0.573576436351046));
#699=DIRECTION('',(-3.08148791101958E-33,0.573576436351046,-0.819152044288992));
#700=DIRECTION('',(-1.25278017343598E-17,-0.819152044288992,-0.573576436351046));
#701=DIRECTION('',(-2.31111593326469E-33,0.573576436351046,-0.819152044288992));
#702=DIRECTION('',(1.25278017343598E-17,0.819152044288992,0.573576436351046));
#703=DIRECTION('',(-1.25278017343598E-17,-0.819152044288992,-0.573576436351046));
#704=DIRECTION('',(6.95432696671262E-34,-0.573576436351046,0.819152044288992));
#705=DIRECTION('',(1.20370621524202E-33,0.573576436351046,-0.819152044288992));
#706=DIRECTION('',(0.,0.819152044288992,0.573576436351046));
#707=DIRECTION('',(1.25278017343598E-17,0.819152044288992,0.573576436351047));
#708=DIRECTION('',(-1.,1.0262174401148E-17,7.18565187410657E-18));
#709=DIRECTION('',(1.,-1.0262174401148E-17,-7.18565187410657E-18));
#710=DIRECTION('',(-1.25278017343598E-17,-0.819152044288992,-0.573576436351046));
#711=DIRECTION('',(-1.25278017343598E-17,-0.819152044288992,-0.573576436351046));
#712=DIRECTION('',(1.,-1.0262174401148E-17,-7.18565187410657E-18));
#713=DIRECTION('',(1.25278017343598E-17,0.819152044288992,0.573576436351047));
#714=DIRECTION('',(-1.,1.0262174401148E-17,7.18565187410657E-18));
#715=DIRECTION('',(-1.0262174401148E-17,-1.,0.));
#716=DIRECTION('',(-6.95432696671262E-34,0.573576436351046,-0.819152044288992));
#717=DIRECTION('',(-1.25278017343598E-17,-0.819152044288992,-0.573576436351046));
#718=DIRECTION('',(1.20370621524202E-33,0.573576436351046,-0.819152044288992));
#719=DIRECTION('',(0.,0.819152044288992,0.573576436351046));
#720=DIRECTION('',(1.,-1.0262174401148E-17,-7.18565187410657E-18));
#721=DIRECTION('',(1.25278017343598E-17,0.819152044288992,0.573576436351046));
#722=DIRECTION('',(-1.,1.0262174401148E-17,7.18565187410657E-18));
#723=DIRECTION('',(1.25278017343598E-17,0.819152044288992,0.573576436351046));
#724=DIRECTION('',(4.62223186652937E-33,-0.573576436351046,0.819152044288992));
#725=DIRECTION('',(-1.54074395550979E-33,0.573576436351046,-0.819152044288992));
#726=DIRECTION('',(1.,-1.0262174401148E-17,-7.18565187410657E-18));
#727=DIRECTION('',(-1.54074395550979E-33,0.573576436351046,-0.819152044288992));
#728=DIRECTION('',(-9.24446373305873E-33,0.573576436351046,-0.819152044288992));
#729=DIRECTION('',(2.50556034687196E-17,0.819152044288992,0.573576436351046));
#730=DIRECTION('',(-1.25278017343598E-17,-0.819152044288992,-0.573576436351046));
#731=DIRECTION('',(1.,-1.0262174401148E-17,-7.18565187410657E-18));
#732=DIRECTION('',(-1.25278017343598E-17,-0.819152044288992,-0.573576436351046));
#733=DIRECTION('',(1.25278017343598E-17,0.819152044288992,0.573576436351046));
#734=DIRECTION('',(4.62223186652937E-33,-0.573576436351046,0.819152044288992));
#735=DIRECTION('',(-3.08148791101958E-33,0.573576436351046,-0.819152044288992));
#736=DIRECTION('',(1.,-1.0262174401148E-17,-7.18565187410657E-18));
#737=DIRECTION('',(-3.08148791101958E-33,0.573576436351046,-0.819152044288992));
#738=DIRECTION('',(1.,-1.0262174401148E-17,-7.18565187410657E-18));
#739=DIRECTION('',(-1.0262174401148E-17,-1.,7.37404127180177E-35));
#740=DIRECTION('',(1.25278017343598E-17,0.819152044288992,0.573576436351046));
#741=DIRECTION('',(0.,-0.573576436351046,0.819152044288992));
#742=DIRECTION('',(-2.50556034687196E-17,-0.819152044288992,-0.573576436351046));
#743=DIRECTION('',(1.25278017343598E-17,0.819152044288992,0.573576436351046));
#744=DIRECTION('',(-1.,1.0262174401148E-17,7.18565187410657E-18));
#745=DIRECTION('',(1.0262174401148E-17,1.,0.));
#746=DIRECTION('',(1.25278017343598E-17,0.819152044288992,0.573576436351046));
#747=DIRECTION('',(0.,-0.573576436351046,0.819152044288992));
#748=DIRECTION('',(-3.08148791101958E-33,0.573576436351046,-0.819152044288992));
#749=DIRECTION('',(-1.,1.0262174401148E-17,7.18565187410657E-18));
#750=DIRECTION('',(-9.78011299884143E-33,0.573576436351046,-0.819152044288992));
#751=DIRECTION('',(0.,0.819152044288992,0.573576436351046));
#752=DIRECTION('',(-1.25278017343598E-17,-0.819152044288992,-0.573576436351046));
#753=DIRECTION('',(-1.,1.0262174401148E-17,7.18565187410657E-18));
#754=DIRECTION('',(1.25278017343598E-17,0.819152044288992,0.573576436351046));
#755=DIRECTION('',(0.,-0.573576436351046,0.819152044288992));
#756=DIRECTION('',(-2.31111593326469E-33,0.573576436351046,-0.819152044288992));
#757=DIRECTION('',(-1.,1.0262174401148E-17,7.18565187410657E-18));
#758=DIRECTION('',(-1.,1.0262174401148E-17,7.18565187410657E-18));
#759=DIRECTION('',(-1.0262174401148E-17,-1.,7.37404127180177E-35));
#760=DIRECTION('',(1.25278017343598E-17,0.819152044288992,0.573576436351046));
#761=DIRECTION('',(0.,-0.573576436351046,0.819152044288992));
#762=DIRECTION('',(0.,-0.819152044288992,-0.573576436351046));
#763=DIRECTION('',(0.,0.,1.));
#764=DIRECTION('',(1.,0.,0.));
#765=DIRECTION('',(0.,-1.,0.));
#766=DIRECTION('',(0.,0.,-1.));
#767=DIRECTION('',(-2.1841555789946E-17,0.,-1.));
#768=DIRECTION('',(1.,0.,0.));
#769=DIRECTION('',(-2.1841555789946E-17,0.,1.));
#770=DIRECTION('',(-1.,0.,0.));
#771=DIRECTION('',(1.,0.,0.));
#772=DIRECTION('',(0.,0.,1.));
#773=DIRECTION('',(1.,0.,0.));
#774=DIRECTION('',(0.,0.,1.));
#775=DIRECTION('',(1.,0.,0.));
#776=DIRECTION('',(0.,0.,-1.));
#777=DIRECTION('',(0.,1.,0.));
#778=DIRECTION('',(0.,1.,0.));
#779=DIRECTION('',(0.,0.,1.));
#780=DIRECTION('',(0.707106781186547,0.707106781186548,0.));
#781=DIRECTION('',(-0.707106781186548,0.707106781186547,0.));
#782=DIRECTION('',(-0.707106781186548,0.707106781186547,0.));
#783=DIRECTION('',(-0.707106781186548,0.707106781186547,0.));
#784=DIRECTION('',(0.,0.,1.));
#785=DIRECTION('',(0.,1.,0.));
#786=DIRECTION('',(0.,0.,1.));
#787=DIRECTION('',(-1.,0.,0.));
#788=DIRECTION('',(-1.,0.,0.));
#789=DIRECTION('',(0.,0.,1.));
#790=DIRECTION('',(-0.707106781186547,0.707106781186548,0.));
#791=DIRECTION('',(-0.707106781186548,-0.707106781186547,0.));
#792=DIRECTION('',(-0.707106781186548,-0.707106781186547,0.));
#793=DIRECTION('',(-0.707106781186548,-0.707106781186547,0.));
#794=DIRECTION('',(0.,0.,1.));
#795=DIRECTION('',(-1.,0.,0.));
#796=DIRECTION('',(0.,0.,1.));
#797=DIRECTION('',(0.,-1.,0.));
#798=DIRECTION('',(0.,-1.,0.));
#799=DIRECTION('',(0.,0.,1.));
#800=DIRECTION('',(1.,0.,0.));
#801=DIRECTION('',(0.,0.,1.));
#802=DIRECTION('',(1.,0.,0.));
#803=DIRECTION('',(0.,0.,-1.));
#804=DIRECTION('',(-1.,0.,0.));
#805=DIRECTION('',(0.,-1.,0.));
#806=DIRECTION('',(1.,0.,0.));
#807=DIRECTION('',(1.,0.,0.));
#808=DIRECTION('',(0.,-1.,0.));
#809=DIRECTION('',(-1.,0.,2.1841555789946E-17));
#810=DIRECTION('',(2.1841555789946E-17,0.,1.));
#811=DIRECTION('',(0.,-1.,0.));
#812=DIRECTION('',(-1.78915550757864E-17,0.573576436351046,-0.819152044288992));
#813=DIRECTION('',(-5.61610146421212E-18,-0.966377039067597,-0.257129186135966));
#814=DIRECTION('',(0.,0.,1.));
#815=DIRECTION('',(1.,0.,0.));
#816=DIRECTION('',(0.,-1.,0.));
#817=DIRECTION('',(-1.,0.,0.));
#818=DIRECTION('',(-1.,0.,2.1841555789946E-17));
#819=DIRECTION('',(1.,0.,2.1841555789946E-17));
#820=DIRECTION('',(2.1841555789946E-17,0.,-1.));
#821=DIRECTION('',(-2.1841555789946E-17,0.,1.));
#822=DIRECTION('',(0.,1.,0.));
#823=DIRECTION('',(-1.,0.,0.));
#824=DIRECTION('',(-2.1841555789946E-17,0.,-1.));
#825=DIRECTION('',(1.25278017343598E-17,0.819152044288992,0.573576436351046));
#826=DIRECTION('',(0.,-0.573576436351046,0.819152044288992));
#827=DIRECTION('',(-1.78915550757864E-17,0.573576436351046,-0.819152044288992));
#828=DIRECTION('',(-1.,0.,2.1841555789946E-17));
#829=DIRECTION('',(-2.11071780129178E-17,0.257129186135966,-0.966377039067597));
#830=DIRECTION('',(0.,0.966377039067597,0.257129186135966));
#831=DIRECTION('',(-5.61610146421212E-18,-0.966377039067597,-0.257129186135966));
#832=DIRECTION('',(-1.,0.,2.1841555789946E-17));
#833=DIRECTION('',(0.,-1.,0.));
#834=DIRECTION('',(0.,0.,1.));
#835=DIRECTION('',(1.,0.,0.));
#836=CARTESIAN_POINT('',(0.,0.,0.));
#837=CARTESIAN_POINT('',(-1.99999999999977E-5,0.0236809715575455,0.176424050104277));
#838=CARTESIAN_POINT('',(-0.0152,0.0174900659668491,0.185265579583558));
#839=CARTESIAN_POINT('',(-0.0152,0.0174900659668491,0.185265579583558));
#840=CARTESIAN_POINT('',(-0.0232,0.0174900659668491,0.185265579583558));
#841=CARTESIAN_POINT('',(-0.0152,0.0236809715575455,0.176424050104277));
#842=CARTESIAN_POINT('',(-0.0152,0.015195760221445,0.188542187760714));
#843=CARTESIAN_POINT('',(-2.00000000000026E-5,0.015195760221445,0.188542187760714));
#844=CARTESIAN_POINT('',(0.0148,0.015195760221445,0.188542187760714));
#845=CARTESIAN_POINT('',(0.0148,0.0236809715575455,0.176424050104277));
#846=CARTESIAN_POINT('',(0.0148,0.0174900659668491,0.185265579583558));
#847=CARTESIAN_POINT('',(0.0148,0.0174900659668491,0.185265579583558));
#848=CARTESIAN_POINT('',(0.0228,0.0174900659668491,0.185265579583558));
#849=CARTESIAN_POINT('',(0.0228,0.0236809715575455,0.176424050104277));
#850=CARTESIAN_POINT('',(0.0228,0.015195760221445,0.188542187760714));
#851=CARTESIAN_POINT('',(-2.00000000000026E-5,0.015195760221445,0.188542187760714));
#852=CARTESIAN_POINT('',(0.02316,0.015195760221445,0.188542187760714));
#853=CARTESIAN_POINT('',(0.02316,0.0236809715575455,0.176424050104277));
#854=CARTESIAN_POINT('',(0.02316,0.032166182893646,0.164305912447839));
#855=CARTESIAN_POINT('',(-1.99999999999991E-5,0.032166182893646,0.164305912447839));
#856=CARTESIAN_POINT('',(-0.0232,0.032166182893646,0.164305912447839));
#857=CARTESIAN_POINT('',(-0.0232,0.0236809715575455,0.176424050104277));
#858=CARTESIAN_POINT('',(-0.0232,0.0236809715575455,0.176424050104277));
#859=CARTESIAN_POINT('',(-0.0232,0.015195760221445,0.188542187760714));
#860=CARTESIAN_POINT('',(-0.0232,0.0303500730407913,0.199153351833209));
#861=CARTESIAN_POINT('',(-0.0232,0.0111,0.185674305578959));
#862=CARTESIAN_POINT('',(-0.0232,0.0370125710204331,0.18963831862366));
#863=CARTESIAN_POINT('',(-0.0232,0.043675069000075,0.180123285414111));
#864=CARTESIAN_POINT('',(-0.0232,0.0420367649114971,0.178976132541409));
#865=CARTESIAN_POINT('',(-0.0232,0.040398460822919,0.177828979668707));
#866=CARTESIAN_POINT('',(-0.0232,0.0348831157159793,0.185705708789677));
#867=CARTESIAN_POINT('',(-0.0232,0.0293677706090395,0.193582437910648));
#868=CARTESIAN_POINT('',(-0.0232,0.0234289182879443,0.189424008747103));
#869=CARTESIAN_POINT('',(-0.0232,0.032166182893646,0.164305912447839));
#870=CARTESIAN_POINT('',(-0.0232,0.0280704226722011,0.161438030266084));
#871=CARTESIAN_POINT('',(-0.0232,0.0195852113361006,0.173556167922522));
#872=CARTESIAN_POINT('',(-2.00000000000026E-5,0.015195760221445,0.188542187760714));
#873=CARTESIAN_POINT('',(-0.0152,0.0227729166311181,0.193847769796961));
#874=CARTESIAN_POINT('',(-0.0152,0.0303500730407913,0.199153351833209));
#875=CARTESIAN_POINT('',(-0.0152,0.0303500730407913,0.199153351833209));
#876=CARTESIAN_POINT('',(-2.00000000000027E-5,0.0111,0.185674305578959));
#877=CARTESIAN_POINT('',(0.02316,0.0111,0.185674305578959));
#878=CARTESIAN_POINT('',(0.02316,0.015195760221445,0.188542187760714));
#879=CARTESIAN_POINT('',(0.0228,0.015195760221445,0.188542187760714));
#880=CARTESIAN_POINT('',(0.0228,0.0303500730407913,0.199153351833209));
#881=CARTESIAN_POINT('',(0.0148,0.0303500730407913,0.199153351833209));
#882=CARTESIAN_POINT('',(0.0148,0.0303500730407913,0.199153351833209));
#883=CARTESIAN_POINT('',(0.0148,0.0227729166311181,0.193847769796961));
#884=CARTESIAN_POINT('',(0.02316,0.0236809715575455,0.176424050104277));
#885=CARTESIAN_POINT('',(0.02316,0.0195852113361006,0.173556167922522));
#886=CARTESIAN_POINT('',(0.02316,0.0280704226722011,0.161438030266084));
#887=CARTESIAN_POINT('',(0.02316,0.032166182893646,0.164305912447839));
#888=CARTESIAN_POINT('',(-1.99999999999991E-5,0.032166182893646,0.164305912447839));
#889=CARTESIAN_POINT('',(-1.99999999999992E-5,0.0280704226722011,0.161438030266084));
#890=CARTESIAN_POINT('',(-1.99999999999977E-5,0.0195852113361006,0.173556167922522));
#891=CARTESIAN_POINT('',(0.0148,0.0370125710204331,0.18963831862366));
#892=CARTESIAN_POINT('',(0.0228,0.0370125710204331,0.18963831862366));
#893=CARTESIAN_POINT('',(0.0228,0.043675069000075,0.180123285414111));
#894=CARTESIAN_POINT('',(0.0148,0.043675069000075,0.180123285414111));
#895=CARTESIAN_POINT('',(0.0148,0.043675069000075,0.180123285414111));
#896=CARTESIAN_POINT('',(0.0148,0.0370125710204331,0.18963831862366));
#897=CARTESIAN_POINT('',(0.0148,0.0420367649114971,0.178976132541409));
#898=CARTESIAN_POINT('',(0.0228,0.0420367649114971,0.178976132541409));
#899=CARTESIAN_POINT('',(0.0228,0.040398460822919,0.177828979668707));
#900=CARTESIAN_POINT('',(0.0148,0.040398460822919,0.177828979668707));
#901=CARTESIAN_POINT('',(0.0148,0.040398460822919,0.177828979668707));
#902=CARTESIAN_POINT('',(0.0148,0.0420367649114971,0.178976132541409));
#903=CARTESIAN_POINT('',(0.0148,0.0348831157159793,0.185705708789677));
#904=CARTESIAN_POINT('',(0.0228,0.0348831157159793,0.185705708789677));
#905=CARTESIAN_POINT('',(0.0228,0.0293677706090395,0.193582437910648));
#906=CARTESIAN_POINT('',(0.0148,0.0293677706090395,0.193582437910648));
#907=CARTESIAN_POINT('',(0.0148,0.0293677706090395,0.193582437910648));
#908=CARTESIAN_POINT('',(0.0148,0.0348831157159793,0.185705708789677));
#909=CARTESIAN_POINT('',(0.0148,0.0273875345000375,0.180295691049647));
#910=CARTESIAN_POINT('',(0.0148,0.0234289182879443,0.189424008747103));
#911=CARTESIAN_POINT('',(0.0148,0.0234289182879443,0.189424008747103));
#912=CARTESIAN_POINT('',(0.0228,0.0234289182879443,0.189424008747103));
#913=CARTESIAN_POINT('',(0.0228,0.0236809715575455,0.176424050104277));
#914=CARTESIAN_POINT('',(-0.0152,0.0370125710204331,0.18963831862366));
#915=CARTESIAN_POINT('',(-0.0152,0.0370125710204331,0.18963831862366));
#916=CARTESIAN_POINT('',(-0.0152,0.043675069000075,0.180123285414111));
#917=CARTESIAN_POINT('',(-0.0152,0.043675069000075,0.180123285414111));
#918=CARTESIAN_POINT('',(-0.0152,0.0420367649114971,0.178976132541409));
#919=CARTESIAN_POINT('',(-0.0152,0.0420367649114971,0.178976132541409));
#920=CARTESIAN_POINT('',(-0.0152,0.040398460822919,0.177828979668707));
#921=CARTESIAN_POINT('',(-0.0152,0.040398460822919,0.177828979668707));
#922=CARTESIAN_POINT('',(-0.0152,0.0348831157159793,0.185705708789677));
#923=CARTESIAN_POINT('',(-0.0152,0.0348831157159793,0.185705708789677));
#924=CARTESIAN_POINT('',(-0.0152,0.0293677706090395,0.193582437910648));
#925=CARTESIAN_POINT('',(-0.0152,0.0293677706090395,0.193582437910648));
#926=CARTESIAN_POINT('',(-0.0152,0.0273875345000375,0.180295691049647));
#927=CARTESIAN_POINT('',(-0.0152,0.0234289182879443,0.189424008747103));
#928=CARTESIAN_POINT('',(-0.0152,0.0234289182879443,0.189424008747103));
#929=CARTESIAN_POINT('',(-0.0222312994301319,0.0273747999183129,-0.0919572057019001));
#930=CARTESIAN_POINT('',(0.,0.0082,0.16));
#931=CARTESIAN_POINT('',(-0.0032,0.0082,0.175746421476632));
#932=CARTESIAN_POINT('',(-0.0032,0.0082,0.185674305578959));
#933=CARTESIAN_POINT('',(-0.0032,0.0082,0.165818537374305));
#934=CARTESIAN_POINT('',(4.33680868994202E-19,0.0082,0.165818537374305));
#935=CARTESIAN_POINT('',(0.0032,0.0082,0.165818537374305));
#936=CARTESIAN_POINT('',(0.0032,0.0082,0.175746421476632));
#937=CARTESIAN_POINT('',(0.0032,0.0082,0.185674305578959));
#938=CARTESIAN_POINT('',(0.,0.0082,0.185674305578959));
#939=CARTESIAN_POINT('',(0.,0.0082,0.2));
#940=CARTESIAN_POINT('',(-0.00549933982822018,0.0082,0.2));
#941=CARTESIAN_POINT('',(0.00549933982822019,0.0082,0.2));
#942=CARTESIAN_POINT('',(0.00549933982822019,0.0082,0.16));
#943=CARTESIAN_POINT('',(0.00549933982822019,0.0082,0.16));
#944=CARTESIAN_POINT('',(0.,0.0082,0.16));
#945=CARTESIAN_POINT('',(-0.00549933982822018,0.0082,0.16));
#946=CARTESIAN_POINT('',(-0.00549933982822018,0.0082,0.16));
#947=CARTESIAN_POINT('',(-0.00549933982822018,0.0082,0.16));
#948=CARTESIAN_POINT('',(-0.00549933982822018,0.0082,0.2));
#949=CARTESIAN_POINT('',(-0.00549933982822018,0.00656,0.2));
#950=CARTESIAN_POINT('',(-0.00549933982822018,0.0082,0.16));
#951=CARTESIAN_POINT('',(-0.00549933982822018,0.00656,0.16));
#952=CARTESIAN_POINT('',(-0.00549933982822018,0.00656,0.16));
#953=CARTESIAN_POINT('',(-0.00549933982822018,0.00656,0.16));
#954=CARTESIAN_POINT('',(-0.00549933982822018,0.00656,0.2));
#955=CARTESIAN_POINT('',(-0.00284,0.00390066017177982,0.2));
#956=CARTESIAN_POINT('',(-0.00549933982822018,0.00656,0.16));
#957=CARTESIAN_POINT('',(-0.00284,0.00390066017177982,0.16));
#958=CARTESIAN_POINT('',(-0.00284,0.00390066017177982,0.16));
#959=CARTESIAN_POINT('',(-0.00284,0.00390066017177982,0.16));
#960=CARTESIAN_POINT('',(-0.00284,0.00390066017177982,0.2));
#961=CARTESIAN_POINT('',(0.00284,0.00390066017177982,0.2));
#962=CARTESIAN_POINT('',(-0.00284,0.00390066017177982,0.16));
#963=CARTESIAN_POINT('',(0.00284,0.00390066017177982,0.16));
#964=CARTESIAN_POINT('',(0.00284,0.00390066017177982,0.16));
#965=CARTESIAN_POINT('',(0.00549933982822019,0.00656,0.16));
#966=CARTESIAN_POINT('',(0.00549933982822019,0.00656,0.2));
#967=CARTESIAN_POINT('',(0.00549933982822019,0.00656,0.2));
#968=CARTESIAN_POINT('',(0.00549933982822019,0.00656,0.16));
#969=CARTESIAN_POINT('',(0.00549933982822019,0.00656,0.16));
#970=CARTESIAN_POINT('',(0.00549933982822019,0.00656,0.16));
#971=CARTESIAN_POINT('',(0.00549933982822019,0.0082,0.16));
#972=CARTESIAN_POINT('',(0.00549933982822019,0.0082,0.2));
#973=CARTESIAN_POINT('',(0.00549933982822019,0.0082,0.16));
#974=CARTESIAN_POINT('',(0.,0.,0.16));
#975=CARTESIAN_POINT('',(0.,0.,0.2));
#976=CARTESIAN_POINT('',(4.33680868994202E-19,0.0111,0.165818537374305));
#977=CARTESIAN_POINT('',(-0.0032,0.0111,0.165818537374305));
#978=CARTESIAN_POINT('',(-0.0032,0.0111,0.165818537374305));
#979=CARTESIAN_POINT('',(4.33680868994202E-19,0.0111,0.165818537374305));
#980=CARTESIAN_POINT('',(0.00316,0.0111,0.165818537374305));
#981=CARTESIAN_POINT('',(4.33680868994202E-19,0.0111,0.165818537374305));
#982=CARTESIAN_POINT('',(0.0032,0.0111,0.165818537374305));
#983=CARTESIAN_POINT('',(0.0032,0.0111,0.165818537374305));
#984=CARTESIAN_POINT('',(-0.0032,0.0111,0.175746421476632));
#985=CARTESIAN_POINT('',(-0.0032,0.0111,0.185674305578959));
#986=CARTESIAN_POINT('',(-0.0032,0.0111,0.185674305578959));
#987=CARTESIAN_POINT('',(-0.0032,0.0169598434465523,0.177305581840944));
#988=CARTESIAN_POINT('',(-0.0032,0.0228196868931046,0.16893685810293));
#989=CARTESIAN_POINT('',(-0.0032,0.0169598434465523,0.167377697738617));
#990=CARTESIAN_POINT('',(0.,0.0111,0.185674305578959));
#991=CARTESIAN_POINT('',(0.0032,0.0111,0.185674305578959));
#992=CARTESIAN_POINT('',(0.0032,0.0111,0.185674305578959));
#993=CARTESIAN_POINT('',(0.,0.0111,0.185674305578959));
#994=CARTESIAN_POINT('',(0.00316,0.0111,0.185674305578959));
#995=CARTESIAN_POINT('',(0.00316,0.0111,0.185674305578959));
#996=CARTESIAN_POINT('',(0.0032,0.0111,0.175746421476632));
#997=CARTESIAN_POINT('',(0.0032,0.0111,0.175746421476632));
#998=CARTESIAN_POINT('',(3.46944695195361E-18,0.0111,0.18));
#999=CARTESIAN_POINT('',(0.00316,0.0111,0.175746421476632));
#1000=CARTESIAN_POINT('',(0.00316,0.0169598434465523,0.177305581840944));
#1001=CARTESIAN_POINT('',(0.00316,0.0169598434465523,0.177305581840944));
#1002=CARTESIAN_POINT('',(0.00316,0.0228196868931046,0.16893685810293));
#1003=CARTESIAN_POINT('',(0.00316,0.0228196868931046,0.16893685810293));
#1004=CARTESIAN_POINT('',(0.00316,0.0169598434465523,0.167377697738617));
#1005=CARTESIAN_POINT('',(0.00316,0.0169598434465523,0.167377697738617));
#1006=CARTESIAN_POINT('',(0.00316,0.0155098434465523,0.175746421476632));
#1007=CARTESIAN_POINT('',(-0.0222312994301319,0.0300001678078612,-0.0957066196203232));
#1008=MECHANICAL_DESIGN_GEOMETRIC_PRESENTATION_REPRESENTATION('',(#622,
#623),#1009);
#1009=(
GEOMETRIC_REPRESENTATION_CONTEXT(3)
GLOBAL_UNCERTAINTY_ASSIGNED_CONTEXT((#1012))
GLOBAL_UNIT_ASSIGNED_CONTEXT((#1017,#1016,#1015))
REPRESENTATION_CONTEXT('Assembly 1','TOP_LEVEL_ASSEMBLY_PART')
);
#1010=(
GEOMETRIC_REPRESENTATION_CONTEXT(3)
GLOBAL_UNCERTAINTY_ASSIGNED_CONTEXT((#1013))
GLOBAL_UNIT_ASSIGNED_CONTEXT((#1017,#1016,#1015))
REPRESENTATION_CONTEXT('Part 3','COMPONENT_PART')
);
#1011=(
GEOMETRIC_REPRESENTATION_CONTEXT(3)
GLOBAL_UNCERTAINTY_ASSIGNED_CONTEXT((#1014))
GLOBAL_UNIT_ASSIGNED_CONTEXT((#1017,#1016,#1015))
REPRESENTATION_CONTEXT('Part 2','COMPONENT_PART')
);
#1012=UNCERTAINTY_MEASURE_WITH_UNIT(LENGTH_MEASURE(1.E-8),#1017,
'DISTANCE_ACCURACY_VALUE','Maximum Tolerance applied to model');
#1013=UNCERTAINTY_MEASURE_WITH_UNIT(LENGTH_MEASURE(1.E-8),#1017,
'DISTANCE_ACCURACY_VALUE','Maximum Tolerance applied to model');
#1014=UNCERTAINTY_MEASURE_WITH_UNIT(LENGTH_MEASURE(1.E-8),#1017,
'DISTANCE_ACCURACY_VALUE','Maximum Tolerance applied to model');
#1015=(
NAMED_UNIT(*)
SI_UNIT($,.STERADIAN.)
SOLID_ANGLE_UNIT()
);
#1016=(
NAMED_UNIT(*)
PLANE_ANGLE_UNIT()
SI_UNIT($,.RADIAN.)
);
#1017=(
LENGTH_UNIT()
NAMED_UNIT(*)
SI_UNIT($,.METRE.)
);
#1018=PRODUCT_DEFINITION_SHAPE('','',#1023);
#1019=PRODUCT_DEFINITION_SHAPE('','',#1024);
#1020=PRODUCT_DEFINITION_SHAPE(' ','NAUO PRDDFN',#12);
#1021=PRODUCT_DEFINITION_SHAPE('','',#1025);
#1022=PRODUCT_DEFINITION_SHAPE(' ','NAUO PRDDFN',#13);
#1023=PRODUCT_DEFINITION('','',#1029,#1026);
#1024=PRODUCT_DEFINITION('','',#1030,#1027);
#1025=PRODUCT_DEFINITION('','',#1031,#1028);
#1026=PRODUCT_DEFINITION_CONTEXT('',#1045,'design');
#1027=PRODUCT_DEFINITION_CONTEXT('',#1045,'design');
#1028=PRODUCT_DEFINITION_CONTEXT('',#1045,'design');
#1029=PRODUCT_DEFINITION_FORMATION_WITH_SPECIFIED_SOURCE('','',#1035,
 .NOT_KNOWN.);
#1030=PRODUCT_DEFINITION_FORMATION_WITH_SPECIFIED_SOURCE('','',#1036,
 .NOT_KNOWN.);
#1031=PRODUCT_DEFINITION_FORMATION_WITH_SPECIFIED_SOURCE('','',#1037,
 .NOT_KNOWN.);
#1032=PRODUCT_RELATED_PRODUCT_CATEGORY('','',(#1035));
#1033=PRODUCT_RELATED_PRODUCT_CATEGORY('','',(#1036));
#1034=PRODUCT_RELATED_PRODUCT_CATEGORY('','',(#1037));
#1035=PRODUCT('Assembly 1','Assembly 1','Assembly 1',(#1041));
#1036=PRODUCT('Part 3','Part 3','Part 3',(#1042));
#1037=PRODUCT('Part 2','Part 2','Part 2',(#1043));
#1038=PRODUCT_CATEGORY('','');
#1039=PRODUCT_CATEGORY('','');
#1040=PRODUCT_CATEGORY('','');
#1041=PRODUCT_CONTEXT('',#1045,'mechanical');
#1042=PRODUCT_CONTEXT('',#1045,'mechanical');
#1043=PRODUCT_CONTEXT('',#1045,'mechanical');
#1044=APPLICATION_PROTOCOL_DEFINITION('international standard',
'ap242_managed_model_based_3d_engineering',2020,#1045);
#1045=APPLICATION_CONTEXT('managed model based 3d engineering');
ENDSEC;
END-ISO-10303-21;
